<svg xmlns="http://www.w3.org/2000/svg" width="16" height="16" fill="none" viewBox="0 0 16 16"><g fill="currentColor"><path d="M3.795.52A.75.75 0 0 1 5.217 1l-.229.677a6.999 6.999 0 1 1-3.84 4.896.75.75 0 0 1 1.468.306A5.5 5.5 0 0 0 13.213 9.75a5.5 5.5 0 0 0-8.944-5.795q-.051.044-.1.092l-.076.078-.009.008a.74.74 0 0 1-.324.188l-.022.007a.8.8 0 0 1-.256.02q-.023 0-.047-.003a1 1 0 0 1-.126-.03l-.013-.005-.045-.019a.8.8 0 0 1-.19-.118l-.021-.019-.017-.014a1 1 0 0 1-.083-.099l-.027-.044a1 1 0 0 1-.05-.095q-.007-.015-.012-.032a1 1 0 0 1-.034-.108l-.004-.023a.74.74 0 0 1 .024-.375zm5.335 4.2a.75.75 0 0 1 0 1.5H7.578l-.138.77c.213-.03.445-.05.69-.05.407 0 .915.147 1.34.437.442.302.862.812.909 1.544a2.11 2.11 0 0 1-.684 1.717c-.466.426-1.104.644-1.797.644a7 7 0 0 1-1.689-.212l-.031-.008-.01-.002-.003-.001h-.002a.751.751 0 0 1 .408-1.445l.001.001.016.004.072.018a5.6 5.6 0 0 0 1.238.146c.385 0 .641-.12.786-.252a.61.61 0 0 0 .198-.513c-.01-.157-.09-.288-.258-.403a1 1 0 0 0-.494-.175 4 4 0 0 0-1.26.213l-.073.027-.015.005a.75.75 0 0 1-1.02-.827l.449-2.52.035-.129a.75.75 0 0 1 .704-.49z"/><path d="M3.795.52A.75.75 0 0 1 5.217 1l-.229.677a7 7 0 1 1-3.84 4.896.751.751 0 0 1 1.47.307A5.5 5.5 0 1 0 4.17 4.047l-.077.077-.009.008a.7.7 0 0 1-.186.132l-.026.014a.7.7 0 0 1-.24.068l-.044.004a1 1 0 0 1-.1-.003q-.028 0-.054-.003a1 1 0 0 1-.125-.03l-.013-.007a.8.8 0 0 1-.232-.132l-.025-.023-.016-.014a1 1 0 0 1-.083-.098l-.027-.044a1 1 0 0 1-.05-.095q-.007-.015-.012-.032a1 1 0 0 1-.034-.108l-.003-.023a.74.74 0 0 1 .024-.375z"/><path d="M9.13 4.719a.751.751 0 0 1 0 1.5H7.579l-.138.77c.213-.03.446-.05.69-.05.407 0 .915.147 1.34.437.442.302.862.812.909 1.544a2.11 2.11 0 0 1-.684 1.717c-.466.426-1.105.644-1.797.644a7 7 0 0 1-1.689-.212l-.031-.008q-.006 0-.01-.003h-.005a.751.751 0 0 1 .408-1.445l.001.001.016.004.072.018q.101.025.286.058c.248.044.586.087.952.087.384 0 .641-.119.786-.25a.61.61 0 0 0 .198-.515c-.01-.156-.09-.287-.258-.402a1 1 0 0 0-.494-.175 4 4 0 0 0-1.26.213q-.05.017-.073.027l-.015.004a.751.751 0 0 1-1.02-.826l.449-2.52.035-.13a.75.75 0 0 1 .704-.488z"/></g></svg>