<svg xmlns="http://www.w3.org/2000/svg" width="16" height="16" fill="none" viewBox="0 0 16 16"><path fill="currentColor" fill-rule="evenodd" d="M7.47 1.22a.75.75 0 0 1 1.06 0l2.5 2.5a.75.75 0 1 1-1.06 1.06L8.75 3.56v3.738l-1.5-1.5V3.56L6.131 4.679l-1.06-1.06zm-.22 8.84v1.19a.75.75 0 0 0 1.453.263l1.986 1.987H4A1.5 1.5 0 0 1 2.5 12V9.5A1.5 1.5 0 0 1 4 8h1.19zM3.704 6.515 1.97 4.78a.75.75 0 0 1 1.06-1.06l11 11a.75.75 0 1 1-1.06 1.06l-.786-.785A3 3 0 0 1 12 15H4a3 3 0 0 1-3-3V9.5a3 3 0 0 1 2.704-2.986m9.795 5.533 1.22 1.22A3 3 0 0 0 15 12V9.5a3 3 0 0 0-3-3h-.25a.75.75 0 0 0 0 1.5H12a1.5 1.5 0 0 1 1.5 1.5z" clip-rule="evenodd"/></svg>