<svg xmlns="http://www.w3.org/2000/svg" width="16" height="16" fill="none" viewBox="0 0 16 16"><g fill="currentColor"><path d="M11.3.049a.75.75 0 0 1 .95.471l.959 2.843a.74.74 0 0 1 .023.371l-.005.029a1 1 0 0 1-.034.111l-.01.025a1 1 0 0 1-.051.097l-.028.044-.022.03q-.028.035-.06.069l-.017.014-.02.019a.7.7 0 0 1-.191.118l-.045.019-.012.004a1 1 0 0 1-.125.03l-.05.005a.8.8 0 0 1-.256-.02l-.021-.008a.74.74 0 0 1-.323-.188l-.01-.008-.075-.078-.1-.092a5.499 5.499 0 1 0 1.652 2.924.75.75 0 0 1 1.47-.306 7 7 0 1 1-3.843-4.896L10.83.999a.75.75 0 0 1 .471-.95m-2.17 4.67a.75.75 0 0 1 0 1.5H7.579l-.138.77c.213-.03.445-.05.69-.05.407 0 .915.147 1.34.437.442.302.861.812.909 1.544a2.11 2.11 0 0 1-.684 1.717c-.467.426-1.105.644-1.797.644a7 7 0 0 1-1.69-.212q-.019-.004-.03-.008l-.01-.002-.003-.001h-.002a.752.752 0 0 1 .408-1.445l.001.001.016.004.072.018a5.6 5.6 0 0 0 1.238.146c.384 0 .64-.12.785-.252a.61.61 0 0 0 .199-.513c-.01-.157-.09-.288-.258-.403a1 1 0 0 0-.494-.175 4 4 0 0 0-1.261.213l-.072.027-.015.005h-.001a.75.75 0 0 1-1.02-.827l.45-2.52.035-.129a.75.75 0 0 1 .704-.49z"/><path d="M11.3.049a.75.75 0 0 1 .951.472l.958 2.842a.7.7 0 0 1 .035.23l.001.023q-.001.06-.012.118l-.004.027a1 1 0 0 1-.033.103l-.015.04a1 1 0 0 1-.044.083q-.016.03-.034.056l-.019.025a1 1 0 0 1-.06.07l-.024.02-.01.01a.7.7 0 0 1-.244.142q-.005.001-.009.004a1 1 0 0 1-.128.03l-.046.004a1 1 0 0 1-.112.002l-.026-.002a1 1 0 0 1-.12-.02l-.014-.006a.74.74 0 0 1-.328-.19l-.014-.014-.049-.048-.02-.02-.102-.097a5.5 5.5 0 1 0 1.651 2.925.75.75 0 0 1 1.47-.307 7 7 0 1 1-3.842-4.896L10.829 1a.75.75 0 0 1 .472-.95m-2.17 4.67a.75.75 0 0 1 0 1.5H7.579l-.138.77a5 5 0 0 1 .69-.05c.407 0 .915.147 1.34.437.442.302.862.811.909 1.544a2.11 2.11 0 0 1-.683 1.717c-.466.426-1.105.644-1.797.644a7 7 0 0 1-1.69-.212l-.031-.007-.01-.003-.003-.001h-.002a.75.75 0 0 1 .407-1.445l.003.001.015.004.072.019a5.6 5.6 0 0 0 1.238.145c.385 0 .641-.12.786-.252a.61.61 0 0 0 .198-.513c-.01-.157-.09-.288-.258-.403a1 1 0 0 0-.494-.174 4 4 0 0 0-1.26.212l-.073.027-.015.006a.75.75 0 0 1-1.02-.827l.45-2.521.035-.129a.75.75 0 0 1 .703-.49z"/></g></svg>