<svg xmlns="http://www.w3.org/2000/svg" width="16" height="16" fill="none" viewBox="0 0 16 16"><g clip-path="url(#a)"><path fill="currentColor" fill-rule="evenodd" d="M8.007 1.52a6.466 6.466 0 0 1 3.384.983.75.75 0 1 1-.795 1.272 4.973 4.973 0 0 0-2.602-.756 4.983 4.983 0 0 0-3.583 1.469l.817.007a.75.75 0 1 1-.013 1.5l-2.497-.022a.75.75 0 0 1-.743-.756l.022-2.5a.75.75 0 1 1 1.5.013l-.005.56a6.48 6.48 0 0 1 4.515-1.77ZM1.453 7.796a6.473 6.473 0 0 0 .84 3.422 6.48 6.48 0 0 0 3.791 3.026l-.487.275a.75.75 0 0 0 .739 1.306l2.176-1.231a.75.75 0 0 0 .283-1.022L7.565 11.4a.75.75 0 0 0-1.305.738l.403.712a4.983 4.983 0 0 1-3.064-2.37 4.973 4.973 0 0 1-.647-2.63.75.75 0 1 0-1.499-.053Zm9.554 5.959a6.473 6.473 0 0 0 2.544-2.438 6.48 6.48 0 0 0 .724-4.796l.483.284a.75.75 0 1 0 .761-1.293l-2.154-1.268a.75.75 0 0 0-1.027.265L11.071 6.66a.75.75 0 0 0 1.292.762l.415-.705a4.983 4.983 0 0 1-.52 3.838 4.974 4.974 0 0 1-1.955 1.876.75.75 0 1 0 .704 1.324ZM7.003 5.284a1.056 1.056 0 0 1 1.994 0l1.45 4.142a.75.75 0 0 1-1.416.496L8.9 9.543H7.1l-.132.379a.75.75 0 0 1-1.416-.496l1.45-4.142ZM8 6.975l.374 1.068h-.748L8 6.975Z" clip-rule="evenodd"/></g><defs><clipPath id="a"><path fill="currentColor" d="M0 0h16v16H0z"/></clipPath></defs></svg>