<svg xmlns="http://www.w3.org/2000/svg" width="16" height="16" fill="none" viewBox="0 0 16 16"><g clip-path="url(#a)"><path fill="currentColor" fill-rule="evenodd" d="M11.39 2.503a6.47 6.47 0 0 0-3.383-.984 6.48 6.48 0 0 0-4.515 1.77l.005-.559a.75.75 0 1 0-1.5-.013l-.022 2.5a.75.75 0 0 0 .743.756l2.497.022a.75.75 0 1 0 .013-1.5l-.817-.007a4.98 4.98 0 0 1 3.583-1.469 4.97 4.97 0 0 1 2.602.756.75.75 0 0 0 .795-1.272m-9.097 8.716a6.47 6.47 0 0 1-.84-3.422.75.75 0 1 1 1.5.053 4.96 4.96 0 0 0 .646 2.63 4.98 4.98 0 0 0 3.064 2.37l-.403-.712a.75.75 0 0 1 1.306-.738l1.229 2.173a.75.75 0 0 1-.283 1.022l-2.176 1.23a.75.75 0 1 1-.739-1.305l.487-.275a6.48 6.48 0 0 1-3.79-3.026m11.258.099a6.47 6.47 0 0 1-2.544 2.438.75.75 0 0 1-.704-1.325 4.97 4.97 0 0 0 1.955-1.875 4.98 4.98 0 0 0 .52-3.838l-.415.705a.75.75 0 1 1-1.292-.762l1.267-2.15a.75.75 0 0 1 1.027-.266l2.154 1.268a.75.75 0 1 1-.761 1.293l-.483-.284a6.48 6.48 0 0 1-.724 4.796" clip-rule="evenodd"/></g><defs><clipPath id="a"><path fill="currentColor" d="M0 0h16v16H0z"/></clipPath></defs></svg>