<svg xmlns="http://www.w3.org/2000/svg" width="16" height="16" fill="none" viewBox="0 0 16 16"><g fill="currentColor"><path d="M10.804.987a2 2 0 0 1 2.333 1.599l1.834 9.83a2 2 0 0 1-1.4 2.285l-.199.048-.983.183-.202.028a2 2 0 0 1-2.082-1.428l-.05-.198-.552-2.963V13a2 2 0 0 1-1.796 1.99l-.204.01h-4.5l-.204-.01a2 2 0 0 1-1.785-1.786L1.003 13V3a2 2 0 0 1 2-2h4.5c.554 0 1.055.225 1.417.589a2 2 0 0 1 .9-.418zM6.003 13.5h1.5a.5.5 0 0 0 .5-.5V3a.5.5 0 0 0-.5-.5h-1.5zm-3-11a.5.5 0 0 0-.5.5v10a.5.5 0 0 0 .5.5h1.5v-11zM10.2 5.938l1.33 7.12a.5.5 0 0 0 .583.4l.983-.184a.5.5 0 0 0 .4-.583l-1.329-7.12zm.877-3.476-.982.182a.5.5 0 0 0-.4.584l.23 1.236 1.967-.367-.23-1.236a.5.5 0 0 0-.585-.4"/><path fill-rule="evenodd" d="M10.803.987a2 2 0 0 1 2.333 1.599l1.835 9.83a2 2 0 0 1-1.4 2.285l-.2.048-.982.184-.203.027a2 2 0 0 1-2.082-1.428l-.048-.198-.554-2.967V13a2 2 0 0 1-1.796 1.99l-.204.01h-4.5l-.204-.01a2 2 0 0 1-1.785-1.786L1.002 13V3a2 2 0 0 1 2-2h4.5c.554 0 1.055.225 1.417.589.252-.207.558-.355.9-.42zM6.002 13.5h1.5a.5.5 0 0 0 .5-.5V3a.5.5 0 0 0-.5-.5h-1.5zm-3-11a.5.5 0 0 0-.5.5v10a.5.5 0 0 0 .5.5h1.5v-11zM10.2 5.938l1.33 7.12a.5.5 0 0 0 .583.4l.983-.184a.5.5 0 0 0 .4-.583l-1.329-7.12zm.878-3.477-.983.183a.5.5 0 0 0-.4.584l.23 1.236 1.967-.367-.23-1.236a.5.5 0 0 0-.584-.4" clip-rule="evenodd"/></g></svg>