<svg xmlns="http://www.w3.org/2000/svg" width="16" height="16" fill="none" viewBox="0 0 16 16"><g fill="currentColor"><path d="M2 8a.75.75 0 0 1 .75-.75h10.5a.75.75 0 0 1 0 1.5H2.75A.75.75 0 0 1 2 8m2.97 5.78a.75.75 0 0 1 0-1.06l2.5-2.5a.75.75 0 0 1 1.06 0l2.5 2.5a.75.75 0 1 1-1.06 1.06L8 11.81l-1.97 1.97a.75.75 0 0 1-1.06 0m0-10.5a.75.75 0 1 1 1.06-1.06L8 4.19l1.97-1.97a.75.75 0 1 1 1.06 1.06l-2.5 2.5a.75.75 0 0 1-1.06 0z"/><path d="M2 8a.75.75 0 0 1 .75-.75h10.5a.75.75 0 0 1 0 1.5H2.75A.75.75 0 0 1 2 8m2.97 5.78a.75.75 0 0 1 0-1.06l2.5-2.5a.75.75 0 0 1 1.06 0l2.5 2.5a.75.75 0 1 1-1.06 1.06L8 11.81l-1.97 1.97a.75.75 0 0 1-1.06 0m0-10.5a.75.75 0 1 1 1.06-1.06L8 4.19l1.97-1.97a.75.75 0 1 1 1.06 1.06l-2.5 2.5a.75.75 0 0 1-1.06 0z"/></g></svg>