<svg xmlns="http://www.w3.org/2000/svg" width="16" height="16" fill="none" viewBox="0 0 16 16"><path fill="currentColor" fill-rule="evenodd" d="M1.5 2.75a.75.75 0 0 0-1.5 0v10.5a.75.75 0 0 0 1.5 0zm14.5 0a.75.75 0 0 0-1.5 0v10.5a.75.75 0 0 0 1.5 0zM3.47 4.97a.75.75 0 0 0 0 1.06L5.44 8 3.47 9.97a.75.75 0 1 0 1.06 1.06l2.5-2.5a.75.75 0 0 0 0-1.06l-2.5-2.5a.75.75 0 0 0-1.06 0m9.06 1.06a.75.75 0 0 0-1.06-1.06l-2.5 2.5a.75.75 0 0 0 0 1.06l2.5 2.5a.75.75 0 1 0 1.06-1.06L10.56 8z" clip-rule="evenodd"/></svg>