<svg xmlns="http://www.w3.org/2000/svg" width="16" height="16" fill="none" viewBox="0 0 16 16"><path fill="currentColor" fill-rule="evenodd" d="M13.5 8a5.5 5.5 0 1 1-11 0 5.5 5.5 0 0 1 11 0M15 8A7 7 0 1 1 1 8a7 7 0 0 1 14 0M6.5 8c0-.803.197-1.294.438-1.574C7.165 6.162 7.504 6 8 6c.498 0 .837.162 1.063.427.24.28.436.77.436 1.573s-.196 1.294-.436 1.573C8.838 9.838 8.5 10 8.001 10c-.497 0-.836-.162-1.063-.426C6.698 9.294 6.5 8.803 6.5 8M8 4.5c-.853 0-1.64.297-2.2.949C5.253 6.086 5 6.969 5 8c0 1.03.253 1.914.8 2.551.56.652 1.347.949 2.2.949.858 0 1.644-.298 2.203-.95C10.75 9.91 11 9.027 11 8s-.25-1.911-.797-2.55c-.559-.652-1.345-.95-2.202-.95" clip-rule="evenodd"/></svg>