<svg xmlns="http://www.w3.org/2000/svg" width="16" height="16" fill="none" viewBox="0 0 16 16"><path fill="currentColor" fill-rule="evenodd" d="M13.5 8a5.5 5.5 0 1 1-11 0 5.5 5.5 0 0 1 11 0M15 8A7 7 0 1 1 1 8a7 7 0 0 1 14 0m-4.51-2.25a.74.74 0 1 0-1.48 0v2.556c0 .704-.17 1.123-.365 1.355-.18.214-.45.348-.86.348-.3 0-.518-.072-.678-.182-.158-.109-.306-.286-.41-.576a.74.74 0 1 0-1.395.498c.194.543.517.991.966 1.3.447.306.971.442 1.516.442.774 0 1.488-.275 1.994-.876.492-.585.713-1.387.713-2.31z" clip-rule="evenodd"/></svg>