<svg xmlns="http://www.w3.org/2000/svg" width="16" height="16" fill="none" viewBox="0 0 16 16"><g fill="currentColor" fill-rule="evenodd" clip-rule="evenodd"><path d="M6.569 7.088a5.3 5.3 0 0 1 1.544-.181c.623.017 1.311.15 1.869.502.596.375 1.018.993 1.018 1.841 0 1.405-1.39 2.25-3 2.25-.885 0-1.688-.289-2.254-.95-.55-.641-.788-1.529-.788-2.55 0-1.033.259-1.92.816-2.556C6.343 4.794 7.138 4.5 8 4.5c1.17 0 1.793.308 2.335.58a.75.75 0 1 1-.67 1.34l-.012-.005C9.201 6.19 8.823 6 8 6c-.513 0-.864.165-1.097.431a1.7 1.7 0 0 0-.334.657M8.07 8.406a3.7 3.7 0 0 0-1.271.18 1.7 1.7 0 0 0-.282.126c.074.403.21.68.367.862.22.257.564.426 1.116.426 1.265 0 1.5-.586 1.5-.75 0-.277-.109-.44-.318-.573-.248-.156-.639-.258-1.112-.271"/><path d="M8 13.5a5.5 5.5 0 1 0 0-11 5.5 5.5 0 0 0 0 11M8 15A7 7 0 1 0 8 1a7 7 0 0 0 0 14"/></g></svg>