<svg xmlns="http://www.w3.org/2000/svg" width="16" height="16" fill="none" viewBox="0 0 16 16"><path fill="currentColor" fill-rule="evenodd" d="M4.788 3.121a1.25 1.25 0 1 1-1.076 2.257 1.25 1.25 0 0 1 1.076-2.257M3.5 6.896l-.068-.02a2.751 2.751 0 1 1 3.415-3.533L8.219 1.97A.75.75 0 0 1 9.28 3.03l-.47.47h.69a3 3 0 0 1 1.139.224A3 3 0 0 1 12.5 6.5v2.604l.068.02a2.751 2.751 0 0 1-.818 5.376A2.75 2.75 0 0 1 11 9.104V6.5q0-.116-.017-.225A1.5 1.5 0 0 0 9.5 5h-.69l.47.47a.75.75 0 0 1-1.06 1.06L6.847 5.157a2.74 2.74 0 0 1-.88 1.242c-.282.225-.61.397-.967.497v2.208l.068.02a2.751 2.751 0 1 1-1.568-.02zm-.312 4.195a1.25 1.25 0 0 0-.182.787 1.25 1.25 0 1 0 .182-.787m7.5 0a1.25 1.25 0 0 0-.181.787 1.25 1.25 0 1 0 .18-.787" clip-rule="evenodd"/></svg>