<svg xmlns="http://www.w3.org/2000/svg" width="16" height="16" fill="none" viewBox="0 0 16 16"><path fill="currentColor" fill-rule="evenodd" d="M9.22 14.03s-.001 0 0 0a.75.75 0 0 0 1.06-1.06l-.47-.47H10a3.016 3.016 0 0 0 1.507-.405A2.999 2.999 0 0 0 13 9.5V6.896h.003a2.735 2.735 0 0 0 .785-.366 2.75 2.75 0 1 0-2.288.366V9.5A1.5 1.5 0 0 1 10 11h-.19l.47-.47s0 .001 0 0a.75.75 0 0 0-1.06-1.06l-.47.47-1.28 1.28a.75.75 0 0 0 0 1.06l1.75 1.75ZM5.72 1.97a.75.75 0 0 1 1.06 0l.47.47 1.28 1.28a.748.748 0 0 1 0 1.06L6.78 6.53c.001 0 0 0 0 0a.751.751 0 0 1-1.06-1.06L6.19 5H6a1.5 1.5 0 0 0-1.5 1.5v2.604a2.757 2.757 0 0 1 2 2.646 2.738 2.738 0 0 1-1.212 2.28 2.737 2.737 0 0 1-1.538.47A2.747 2.747 0 0 1 1 11.75a2.751 2.751 0 0 1 2-2.646V6.5a2.999 2.999 0 0 1 3-3h.19l-.47-.47a.75.75 0 0 1 0-1.06Zm-.908 9.121A1.246 1.246 0 0 1 5 11.75a1.25 1.25 0 1 1-.188-.659ZM11 4.25a1.25 1.25 0 1 1 2.5 0 1.25 1.25 0 0 1-2.5 0Z" clip-rule="evenodd"/></svg>