<svg xmlns="http://www.w3.org/2000/svg" width="16" height="16" fill="none" viewBox="0 0 16 16"><path fill="currentColor" fill-rule="evenodd" d="M4.788 3.121a1.25 1.25 0 1 1-1.076 2.257 1.25 1.25 0 0 1 1.076-2.257ZM3.5 6.896a2.751 2.751 0 1 1 3.347-3.554L8.219 1.97A.75.75 0 0 1 9.28 3.03l-.47.47h.69a3.04 3.04 0 0 1 1.139.224A3 3 0 0 1 12.5 6.5v2.604l.068.02a2.751 2.751 0 0 1-.818 5.376A2.75 2.75 0 0 1 11 9.104V6.5A1.501 1.501 0 0 0 9.5 5h-.69l.47.47a.75.75 0 0 1-1.06 1.06L6.847 5.157a2.737 2.737 0 0 1-.88 1.242c-.282.225-.61.397-.967.497v2.208l.068.02a2.751 2.751 0 1 1-1.568-.02V6.896Zm-.312 4.195a1.246 1.246 0 0 0-.182.787 1.25 1.25 0 1 0 .182-.787Zm7.5 0a1.247 1.247 0 0 0-.181.787 1.25 1.25 0 1 0 .18-.787Z" clip-rule="evenodd"/></svg>