<svg xmlns="http://www.w3.org/2000/svg" width="16" height="16" fill="none" viewBox="0 0 16 16"><g fill="currentColor"><path d="M12.251 9a.75.75 0 0 1 .75.75v1.501h1.502a.75.75 0 0 1 0 1.5H13v1.502a.75.75 0 0 1-1.5 0V12.75H10a.75.75 0 0 1 0-1.5h1.501v-1.5a.75.75 0 0 1 .75-.75M7 1c3.314 0 6 1 6 3v2.995a.75.75 0 0 1-1.5 0v-.874C10.4 6.706 8.792 7 7 7s-3.4-.294-4.5-.879V8c0 .18.078.516.885.888C4.2 9.264 5.462 9.5 7 9.5q.368 0 .716-.018a.75.75 0 0 1 .076 1.499q-.248.011-.501.015l-.024.002Q7.134 11.001 7 11l-.267-.002-.07-.005c-1.522-.032-2.894-.277-3.905-.743a5 5 0 0 1-.258-.129V12c0 .18.078.516.885.888.816.376 2.077.61 3.614.611h.005q.363 0 .708-.017a.75.75 0 0 1 .076 1.499 15 15 0 0 1-.502.015l-.023.002-.261.001L7 15v-.001V15l-.001-.001-.26-.001-.07-.005c-1.524-.031-2.898-.277-3.911-.743C1.665 13.747 1 12.995 1 12V4c0-2 2.686-3 6-3m0 1.5c-1.538 0-2.799.236-3.615.612-.814.375-.885.714-.885.888s.071.513.885.888C4.2 5.264 5.462 5.5 7 5.5s2.799-.236 3.615-.612c.814-.375.885-.714.885-.888s-.071-.513-.885-.888C9.8 2.736 8.538 2.5 7 2.5"/><path d="M12.251 9a.75.75 0 0 1 .75.75v1.501h1.502a.75.75 0 0 1 0 1.5H13v1.502a.75.75 0 0 1-1.5 0V12.75H10a.75.75 0 0 1 0-1.5h1.501v-1.5a.75.75 0 0 1 .75-.75M7 1c3.314 0 6 1 6 3v2.995a.75.75 0 0 1-1.5 0v-.874C10.4 6.706 8.792 7 7 7s-3.4-.294-4.5-.879V8c0 .18.078.516.885.888C4.2 9.264 5.462 9.5 7 9.5q.368 0 .716-.018a.75.75 0 0 1 .076 1.499q-.248.011-.501.015l-.024.002Q7.134 11.001 7 11l-.267-.002-.07-.005c-1.522-.032-2.894-.277-3.905-.743a5 5 0 0 1-.258-.129V12c0 .18.078.516.885.888.816.376 2.077.61 3.614.611h.005q.364 0 .708-.017a.75.75 0 0 1 .076 1.499q-.247.011-.502.015l-.023.002q-.13.003-.263.002l-.001-.001-.26-.001-.07-.005c-1.525-.031-2.898-.277-3.911-.743C1.665 13.747 1 12.995 1 12V4c0-2 2.686-3 6-3m0 1.5c-1.538 0-2.799.236-3.615.612-.814.375-.885.714-.885.888s.071.513.885.888C4.2 5.264 5.462 5.5 7 5.5s2.799-.236 3.615-.612c.814-.375.885-.714.885-.888s-.071-.513-.885-.888C9.8 2.736 8.538 2.5 7 2.5"/></g></svg>