<svg xmlns="http://www.w3.org/2000/svg" width="16" height="16" fill="none" viewBox="0 0 16 16"><path fill="currentColor" fill-rule="evenodd" d="M3.03 1.97a.75.75 0 0 0-1.06 1.06l.829.83a8.206 8.206 0 0 0-2.3 3.016l-.26.585a1.328 1.328 0 0 0 0 1.079l.26.585a8.208 8.208 0 0 0 11.435 3.87l1.035 1.035a.75.75 0 0 0 1.061-1.06l-11-11Zm7.787 9.908-1.293-1.293a3 3 0 0 1-4.109-4.109L3.866 4.927A6.707 6.707 0 0 0 1.87 7.486L1.641 8l.23.515a6.708 6.708 0 0 0 8.946 3.363ZM6.551 7.611A1.502 1.502 0 0 0 8.388 9.45L6.551 7.611Zm7.396 3.836A8.204 8.204 0 0 0 15.5 9.124l.26-.584a1.328 1.328 0 0 0 0-1.08l-.26-.584A8.208 8.208 0 0 0 5.05 2.55l1.187 1.187a6.708 6.708 0 0 1 7.893 3.748l.228.515-.229.515a6.706 6.706 0 0 1-1.243 1.871l1.061 1.061ZM7.535 5.036l3.43 3.428a3 3 0 0 0-3.429-3.429Z" clip-rule="evenodd"/></svg>