<svg xmlns="http://www.w3.org/2000/svg" width="16" height="16" fill="none" viewBox="0 0 16 16"><g fill="currentColor"><path d="M14.505 5.631a.75.75 0 0 1 1.218.875A9.6 9.6 0 0 1 13.8 8.501l1.355 1.712c.263.332.195.774-.15.986-.344.213-.836.116-1.099-.215l-1.329-1.681a9.5 9.5 0 0 1-1.972.807l.62 2.703c.092.404-.16.8-.564.886a.764.764 0 0 1-.9-.576l-.623-2.72a9.6 9.6 0 0 1-2.276.003l-.62 2.717a.764.764 0 0 1-.901.576.736.736 0 0 1-.565-.886l.617-2.697a9.4 9.4 0 0 1-1.976-.806l-1.323 1.674c-.263.331-.755.428-1.1.215-.344-.212-.41-.654-.148-.986L2.194 8.51a9.5 9.5 0 0 1-1.91-1.982.75.75 0 0 1 1.219-.875c3.189 4.44 9.81 4.424 13.002-.021"/><path d="M14.505 5.631a.75.75 0 0 1 1.219.875A9.6 9.6 0 0 1 13.8 8.501l1.355 1.712c.263.332.195.774-.15.986-.344.213-.836.116-1.099-.216l-1.329-1.68a9.5 9.5 0 0 1-1.972.806l.62 2.704c.092.403-.16.8-.564.886a.765.765 0 0 1-.9-.576l-.624-2.72a9.6 9.6 0 0 1-2.275.003l-.62 2.717a.765.765 0 0 1-.901.576.736.736 0 0 1-.565-.886l.618-2.698a9.4 9.4 0 0 1-1.977-.805l-1.323 1.673c-.263.332-.755.429-1.1.216-.344-.212-.41-.654-.148-.986l1.348-1.704a9.5 9.5 0 0 1-1.91-1.982.75.75 0 0 1 1.219-.875c3.19 4.44 9.811 4.424 13.002-.021"/></g></svg>