<svg xmlns="http://www.w3.org/2000/svg" width="16" height="16" fill="none" viewBox="0 0 16 16"><path fill="currentColor" fill-rule="evenodd" d="M13.5 8a5.5 5.5 0 1 1-11 0 5.5 5.5 0 0 1 11 0M15 8A7 7 0 1 1 1 8a7 7 0 0 1 14 0m-5.67 2.835a.75.75 0 1 0 1.34-.67C10.268 9.356 9.219 8.75 8 8.75s-2.267.606-2.67 1.415a.75.75 0 1 0 1.34.67c.097-.191.548-.585 1.33-.585s1.233.394 1.33.585M10 8a.75.75 0 0 1-.75-.75v-1a.75.75 0 0 1 1.5 0v1A.75.75 0 0 1 10 8m-4.75-.75a.75.75 0 0 0 1.5 0v-1a.75.75 0 0 0-1.5 0z" clip-rule="evenodd"/></svg>