<svg xmlns="http://www.w3.org/2000/svg" width="16" height="16" fill="none" viewBox="0 0 16 16"><g fill="currentColor" clip-path="url(#a)"><path d="M9.238 9.451a.75.75 0 1 1 1.024 1.096 3.316 3.316 0 0 1-4.524.004.75.75 0 0 1 1.024-1.097 1.816 1.816 0 0 0 2.476-.003M6.25 5.5a.75.75 0 0 1 .75.75v1a.75.75 0 0 1-1.5 0v-1a.75.75 0 0 1 .75-.75m3.5 0a.75.75 0 0 1 .75.75v1a.75.75 0 0 1-1.5 0v-1a.75.75 0 0 1 .75-.75"/><path fill-rule="evenodd" d="M8 0a.75.75 0 0 1 .75.75V2H11a3 3 0 0 1 3 3 2.19 2.19 0 0 1 1.5 2.081V9.42l-.007.176A2.19 2.19 0 0 1 14 11.5a3 3 0 0 1-3 3H5a3 3 0 0 1-3-3A2.19 2.19 0 0 1 .507 9.595L.5 9.419V7.081C.5 6.137 1.104 5.3 2 5a3 3 0 0 1 3-3h2.25V.75A.75.75 0 0 1 8 0M5 3.5A1.5 1.5 0 0 0 3.5 5v1.081l-1.025.342A.69.69 0 0 0 2 7.08v2.34c0 .299.191.564.475.658l1.025.342v1.08A1.5 1.5 0 0 0 5 13h6a1.5 1.5 0 0 0 1.5-1.5v-1.081l1.025-.342A.69.69 0 0 0 14 9.42V7.081a.69.69 0 0 0-.475-.658L12.5 6.08V5A1.5 1.5 0 0 0 11 3.5z" clip-rule="evenodd"/></g><defs><clipPath id="a"><path fill="currentColor" d="M0 0h16v16H0z"/></clipPath></defs></svg>