<svg xmlns="http://www.w3.org/2000/svg" width="16" height="16" fill="none" viewBox="0 0 16 16"><path fill="currentColor" fill-rule="evenodd" d="M8 1c-.372 0-.737.03-1.094.085a.75.75 0 0 0 .232 1.482 5.546 5.546 0 0 1 1.724 0 .75.75 0 0 0 .232-1.482A7.047 7.047 0 0 0 8 1ZM4.767 3.55a.75.75 0 1 0-.882-1.213 7.036 7.036 0 0 0-1.548 1.548.75.75 0 0 0 1.213.882c.34-.466.75-.878 1.217-1.217Zm7.348-1.213a.75.75 0 1 0-.883 1.213c.467.34.879.75 1.218 1.217a.75.75 0 0 0 1.213-.882 7.037 7.037 0 0 0-1.548-1.548ZM2.567 7.138a.75.75 0 0 0-1.482-.232 7.047 7.047 0 0 0 0 2.188.75.75 0 0 0 1.482-.232 5.546 5.546 0 0 1 0-1.724Zm12.348-.232a.75.75 0 1 0-1.482.232 5.54 5.54 0 0 1 0 1.724.75.75 0 0 0 1.482.232 7.048 7.048 0 0 0 0-2.188ZM3.55 11.233a.75.75 0 1 0-1.213.882 7.037 7.037 0 0 0 1.548 1.548.75.75 0 0 0 .882-1.213 5.533 5.533 0 0 1-1.217-1.217Zm10.113.882a.75.75 0 0 0-1.213-.883 5.53 5.53 0 0 1-1.217 1.218.75.75 0 0 0 .882 1.213 7.037 7.037 0 0 0 1.548-1.548Zm-6.525 1.318a.75.75 0 0 0-.232 1.482 7.048 7.048 0 0 0 2.188 0 .75.75 0 1 0-.232-1.482 5.54 5.54 0 0 1-1.724 0ZM10 11a.75.75 0 0 0 0-1.5H6A.75.75 0 0 0 6 11h4Zm0-3a.75.75 0 0 1-.75-.75v-1a.75.75 0 0 1 1.5 0v1A.75.75 0 0 1 10 8Zm-4.75-.75a.75.75 0 0 0 1.5 0v-1a.75.75 0 0 0-1.5 0v1Z" clip-rule="evenodd"/></svg>