<svg xmlns="http://www.w3.org/2000/svg" width="16" height="16" fill="none" viewBox="0 0 16 16"><path fill="currentColor" fill-rule="evenodd" d="M12.5 12a1.5 1.5 0 0 1-1.5 1.5H5A1.5 1.5 0 0 1 3.5 12V4A1.5 1.5 0 0 1 5 2.5h2.757a1.5 1.5 0 0 1 1.061.44l3.243 3.242a1.5 1.5 0 0 1 .439 1.06zm.621-6.879A3 3 0 0 1 14 7.243V12a3 3 0 0 1-3 3H5a3 3 0 0 1-3-3V4a3 3 0 0 1 3-3h2.757a3 3 0 0 1 2.122.879zm-2.807 2.623a.75.75 0 1 0-1.128-.988L8 8.111 6.814 6.756a.75.75 0 1 0-1.128.988L7.003 9.25l-1.317 1.506a.75.75 0 0 0 1.128.988L8 10.389l1.186 1.355a.75.75 0 0 0 1.128-.988L8.997 9.25z" clip-rule="evenodd"/></svg>