<svg xmlns="http://www.w3.org/2000/svg" width="16" height="16" fill="none" viewBox="0 0 16 16"><g fill="currentColor"><path d="M6.5 12a1 1 0 0 1 1 1v1a1 1 0 0 1-1 1H2a1 1 0 0 1-1-1v-1a1 1 0 0 1 1-1zm7.5 0a1 1 0 0 1 1 1v1a1 1 0 0 1-1 1H9.5a1 1 0 0 1-1-1v-1a1 1 0 0 1 1-1zM3 8a1 1 0 0 1 1 1v1a1 1 0 0 1-1 1H1.5a.5.5 0 0 1-.5-.5v-2a.5.5 0 0 1 .5-.5zm5-6.966c.341 0 .68.076.987.223l2.91 1.388c.575.274.943.855.943 1.493v.329l-.014.438a6.87 6.87 0 0 1-1.868 4.283l.042-.04V10a1 1 0 0 1-1 1H6a1 1 0 0 1-1-1v-.853l.041.041a6.87 6.87 0 0 1-1.866-4.283l-.014-.438v-.33c0-.597.322-1.145.837-1.438l.106-.054 2.91-1.388A2.3 2.3 0 0 1 8 1.034M14.504 8a.5.5 0 0 1 .5.5v2a.5.5 0 0 1-.5.5h-1.5a1 1 0 0 1-1-1V9a1 1 0 0 1 1-1zM5.887 9.944l.105.08zm4.12.08.105-.08zm-4.488-.378q.068.06.14.12zm4.82.12q.073-.06.141-.12zM8 2.535a.8.8 0 0 0-.34.077L4.748 3.998a.16.16 0 0 0-.088.14v.329c0 1.838.94 3.549 2.491 4.535l.697.442a.28.28 0 0 0 .303 0l.697-.442a5.38 5.38 0 0 0 2.49-4.535v-.33a.16.16 0 0 0-.087-.139l-2.91-1.387A.8.8 0 0 0 8 2.534M5.208 9.357q.066.067.134.131-.068-.064-.134-.13m5.45.131q.068-.064.133-.13-.065.066-.133.13"/><path d="M6.5 12a1 1 0 0 1 1 1v1a1 1 0 0 1-1 1H2a1 1 0 0 1-1-1v-1a1 1 0 0 1 1-1zm7.5 0a1 1 0 0 1 1 1v1a1 1 0 0 1-1 1H9.5a1 1 0 0 1-1-1v-1a1 1 0 0 1 1-1zM3 8a1 1 0 0 1 1 1v1a1 1 0 0 1-1 1H1.5a.5.5 0 0 1-.5-.5v-2a.5.5 0 0 1 .5-.5z"/><path fill-rule="evenodd" d="M8 1.034c.341 0 .68.076.987.223l2.91 1.388c.575.274.943.855.943 1.493v.329l-.014.438a6.87 6.87 0 0 1-1.868 4.283l.042-.04V10a1 1 0 0 1-1 1H6a1 1 0 0 1-1-1v-.853l.041.041a6.87 6.87 0 0 1-1.866-4.283l-.014-.438v-.33c0-.597.322-1.145.837-1.438l.106-.054 2.91-1.388A2.3 2.3 0 0 1 8 1.034m0 1.5a.8.8 0 0 0-.34.077L4.748 3.998a.16.16 0 0 0-.088.14v.329c0 1.838.94 3.549 2.491 4.535l.697.442a.28.28 0 0 0 .303 0l.697-.442a5.38 5.38 0 0 0 2.49-4.535v-.33a.16.16 0 0 0-.087-.139l-2.91-1.387A.8.8 0 0 0 8 2.534" clip-rule="evenodd"/><path d="M14.504 8a.5.5 0 0 1 .5.5v2a.5.5 0 0 1-.5.5h-1.5a1 1 0 0 1-1-1V9a1 1 0 0 1 1-1z"/></g></svg>