<svg xmlns="http://www.w3.org/2000/svg" width="16" height="16" fill="none" viewBox="0 0 16 16"><path fill="currentColor" fill-rule="evenodd" d="m9.035 3.863.182-1.276a.92.92 0 0 1 .818-.783.914.914 0 0 1 .272 1.805zM7.25 5.5v2H3a.5.5 0 0 1-.5-.5V6a.5.5 0 0 1 .5-.5zM8 1.564A2.415 2.415 0 1 0 3.83 4H3a2 2 0 0 0-2 2v1a2 2 0 0 0 1 1.732V12a3 3 0 0 0 3 3h6a3 3 0 0 0 3-3V8.732A2 2 0 0 0 15 7V6a2 2 0 0 0-2-2h-.83A2.415 2.415 0 1 0 8 1.565m.75 4.186V7.5H13a.5.5 0 0 0 .5-.5V6a.5.5 0 0 0-.5-.5H8.75zM7.25 9H3.5v3A1.5 1.5 0 0 0 5 13.5h2.25zm1.5 4.5V9h3.75v3a1.5 1.5 0 0 1-1.5 1.5zM6.783 2.587l.182 1.276-1.272-.254a.914.914 0 0 1 .272-1.805.92.92 0 0 1 .818.783" clip-rule="evenodd"/></svg>