<svg xmlns="http://www.w3.org/2000/svg" width="16" height="16" fill="none" viewBox="0 0 16 16"><path fill="currentColor" fill-rule="evenodd" d="M2.5 4.25a.75.75 0 0 0-1.5 0v7.496a.75.75 0 0 0 1.5 0V8.75h4v2.996a.75.75 0 0 0 1.5 0V4.25a.75.75 0 0 0-1.5 0v3h-4zm8.114 1.496c.202-.504.69-.834 1.232-.834h.28a.94.94 0 0 1 .929.796l.027.18a1.15 1.15 0 0 1-.911 1.303l-.8.16a.662.662 0 0 0 .129 1.31h1.21a.89.89 0 0 1 .882 1.017 1.67 1.67 0 0 1-1.414 1.414l-.103.015a1.81 1.81 0 0 1-1.828-.9l-.018-.033a.662.662 0 0 0-1.152.652l.018.032a3.13 3.13 0 0 0 3.167 1.559l.103-.015a2.99 2.99 0 0 0 2.537-2.537 2.21 2.21 0 0 0-1.058-2.216 2.47 2.47 0 0 0 .547-1.963l-.028-.179a2.26 2.26 0 0 0-2.237-1.919h-.28a2.65 2.65 0 0 0-2.46 1.666.662.662 0 1 0 1.228.492" clip-rule="evenodd"/></svg>