<svg xmlns="http://www.w3.org/2000/svg" width="16" height="16" fill="none" viewBox="0 0 16 16"><path fill="currentColor" fill-rule="evenodd" d="M2.5 4.25a.75.75 0 0 0-1.5 0v7.496a.75.75 0 0 0 1.5 0V8.75h4v2.996a.75.75 0 0 0 1.5 0V4.25a.75.75 0 0 0-1.5 0v3h-4zm8.403 1.783A1.364 1.364 0 0 1 12.226 5h.226a1.071 1.071 0 0 1 .672 1.906l-3.61 2.906a1.51 1.51 0 0 0 .947 2.688h3.789a.75.75 0 0 0 0-1.5h-3.793l-.003-.003-.003-.004v-.004a.01.01 0 0 1 .004-.008l3.61-2.907A2.571 2.571 0 0 0 12.452 3.5h-.226c-1.314 0-2.46.894-2.778 2.17l-.038.148a.75.75 0 1 0 1.456.364z" clip-rule="evenodd"/></svg>