<svg xmlns="http://www.w3.org/2000/svg" width="16" height="16" fill="none" viewBox="0 0 16 16"><path fill="currentColor" fill-rule="evenodd" d="M5 2C3.076 2 1.675 3.099 1.188 4.793a.75.75 0 1 0 1.442.414C2.929 4.166 3.734 3.5 5 3.5c.878 0 1.897.564 2.288 1.737a.75.75 0 0 0 1.424 0C9.103 4.062 10.112 3.5 11 3.5c.823 0 1.427.282 1.83.717.408.441.67 1.105.67 1.969 0 1.44-.742 2.68-1.888 3.767-1.05.996-2.381 1.805-3.61 2.45-1.189-.628-2.466-1.395-3.497-2.335a.75.75 0 1 0-1.01 1.109c1.28 1.168 2.853 2.064 4.161 2.739a.75.75 0 0 0 .685.001c1.356-.692 2.996-1.635 4.303-2.876C13.954 9.8 15 8.191 15 6.186c0-1.166-.357-2.22-1.07-2.989C13.21 2.421 12.19 2 11 2c-1.08 0-2.222.49-3 1.454A3.912 3.912 0 0 0 5 2Zm.36 3.814a.75.75 0 0 0-1.14-.094L2.44 7.5H.75a.75.75 0 0 0 0 1.5h2a.75.75 0 0 0 .53-.22l1.374-1.374 1.986 2.78a.75.75 0 0 0 1.21.014l1.275-1.7h1.625a.75.75 0 0 0 0-1.5h-2a.75.75 0 0 0-.6.3l-.885 1.18L5.36 5.814Z" clip-rule="evenodd"/></svg>