<svg xmlns="http://www.w3.org/2000/svg" width="16" height="16" fill="none" viewBox="0 0 16 16"><g fill="currentColor"><path d="M13.25 1a.75.75 0 0 1 0 1.5h-.5v1.822a3.75 3.75 0 0 1-1.386 2.91L10.42 8l.945.768a3.75 3.75 0 0 1 1.386 2.91v1.821h.5a.75.75 0 0 1 0 1.5h-1.23L12 15H4l-.02-.001H2.754a.75.75 0 0 1 0-1.5h.496v-1.821c0-1.13.51-2.198 1.386-2.91L5.579 8l-.943-.768a3.75 3.75 0 0 1-1.386-2.91V2.5h-.5a.75.75 0 0 1 0-1.5zM8.982 8.765a1.9 1.9 0 0 0-1.972.005L5.58 9.932a2.25 2.25 0 0 0-.831 1.746v1.821h6.5v-1.821a2.25 2.25 0 0 0-.831-1.746zM4.75 2.504v1.248h6.5V2.5z"/><path fill-rule="evenodd" d="M13.25 1a.75.75 0 0 1 0 1.5h-.5v1.822a3.75 3.75 0 0 1-1.386 2.91L10.42 8l.945.768a3.75 3.75 0 0 1 1.386 2.91v1.821h.5a.75.75 0 0 1 0 1.5h-1.23L12 15H4l-.02-.001H2.754a.75.75 0 0 1 0-1.5h.496v-1.821c0-1.13.51-2.198 1.386-2.91L5.579 8l-.943-.768a3.75 3.75 0 0 1-1.386-2.91V2.5h-.5a.75.75 0 0 1 0-1.5zM8.982 8.765a1.9 1.9 0 0 0-1.972.005L5.58 9.932a2.25 2.25 0 0 0-.831 1.746v1.821h6.5v-1.821a2.25 2.25 0 0 0-.831-1.746zM4.75 2.504v1.248h6.5V2.5z" clip-rule="evenodd"/></g></svg>