<svg xmlns="http://www.w3.org/2000/svg" width="16" height="16" fill="none" viewBox="0 0 16 16"><g clip-path="url(#a)"><path fill="currentColor" fill-rule="evenodd" d="M2.5 12.5H3a.5.5 0 0 0 .5-.5V4a.5.5 0 0 0-.5-.5h-.5A.5.5 0 0 0 2 4v8a.5.5 0 0 0 .5.5M3 14h-.5a2 2 0 0 1-2-2V4a2 2 0 0 1 2-2H3a2 2 0 0 1 2 2v8a2 2 0 0 1-2 2m4.75-1.5h.5a.5.5 0 0 0 .5-.5V4a.5.5 0 0 0-.5-.5h-.5a.5.5 0 0 0-.5.5v8a.5.5 0 0 0 .5.5m.5 1.5h-.5a2 2 0 0 1-2-2V4a2 2 0 0 1 2-2h.5a2 2 0 0 1 2 2v8a2 2 0 0 1-2 2m5.25-1.5H13a.5.5 0 0 1-.5-.5V4a.5.5 0 0 1 .5-.5h.5a.5.5 0 0 1 .5.5v8a.5.5 0 0 1-.5.5M13 14h.5a2 2 0 0 0 2-2V4a2 2 0 0 0-2-2H13a2 2 0 0 0-2 2v8a2 2 0 0 0 2 2" clip-rule="evenodd"/></g><defs><clipPath id="a"><path fill="currentColor" d="M0 0h16v16H0z"/></clipPath></defs></svg>