<svg xmlns="http://www.w3.org/2000/svg" width="16" height="16" fill="none" viewBox="0 0 16 16"><path fill="currentColor" fill-rule="evenodd" d="M10 2.75a.75.75 0 0 0-1.5 0v7.506a.75.75 0 0 0 1.388.395c.38.223.834.349 1.362.349C13.045 11 14 9.545 14 7.75s-.955-3.25-2.75-3.25a2.7 2.7 0 0 0-1.25.287zm0 5c0 .65.175 1.109.38 1.37.174.22.424.38.87.38s.696-.16.87-.38c.205-.261.38-.72.38-1.37s-.175-1.109-.38-1.37c-.174-.22-.424-.38-.87-.38s-.696.16-.87.38c-.205.261-.38.72-.38 1.37M3.58 6.339a2.3 2.3 0 0 1 .432-.222c.132-.046.321-.086.634-.086.447 0 .743.143.938.365.12.138.23.338.302.622h-1.31c-1.262 0-2.332.849-2.326 1.998.003.478.168.988.561 1.381.4.4.963.61 1.627.61.53 0 1.091-.16 1.584-.472a.75.75 0 0 0 1.447-.279V7.768c0-.946-.237-1.766-.756-2.36-.53-.606-1.271-.877-2.067-.877-.452 0-.811.06-1.125.169-.293.101-.52.237-.689.338l-.022.013a.75.75 0 1 0 .77 1.288m.17 2.67c0-.095.154-.49.827-.49h1.258c-.268.677-.89.987-1.397.987-.345 0-.499-.102-.566-.169a.46.46 0 0 1-.122-.329M0 11.75A2.25 2.25 0 0 0 2.25 14h11.5A2.25 2.25 0 0 0 16 11.75v-1a.75.75 0 0 0-1.5 0v1a.75.75 0 0 1-.75.75H2.25a.75.75 0 0 1-.75-.75v-1a.75.75 0 0 0-1.5 0z" clip-rule="evenodd"/></svg>