<svg xmlns="http://www.w3.org/2000/svg" width="16" height="16" fill="none" viewBox="0 0 16 16"><path fill="currentColor" fill-rule="evenodd" d="M5.28 2.22a.75.75 0 0 1 0 1.06l-2 2a.75.75 0 0 1-1.06 0l-1-1a.75.75 0 0 1 1.06-1.06l.47.47 1.47-1.47a.75.75 0 0 1 1.06 0M7.25 3h7a.75.75 0 0 1 0 1.5h-7a.75.75 0 0 1 0-1.5M5.28 7.28a.75.75 0 0 0-1.06-1.06L2.75 7.69l-.47-.47a.75.75 0 0 0-1.06 1.06l1 1a.75.75 0 0 0 1.06 0zm0 3.19a.75.75 0 0 1 0 1.06l-2 2a.75.75 0 0 1-1.06 0l-1-1a.75.75 0 1 1 1.06-1.06l.47.47 1.47-1.47a.75.75 0 0 1 1.06 0M8.4 9h.1a2.5 2.5 0 0 1 5 0h.1a1.4 1.4 0 0 1 1.4 1.4v2.2a1.4 1.4 0 0 1-1.4 1.4H8.4A1.4 1.4 0 0 1 7 12.6v-2.2A1.4 1.4 0 0 1 8.4 9M11 8a1 1 0 0 1 1 1h-2a1 1 0 0 1 1-1m-2.5 2.5v2h5v-2z" clip-rule="evenodd"/></svg>