<svg xmlns="http://www.w3.org/2000/svg" width="16" height="16" fill="none" viewBox="0 0 16 16"><path fill="currentColor" fill-rule="evenodd" d="M3.21 2.5a.5.5 0 0 0-.796-.403l-.71.524a.5.5 0 0 0 .507.856V5a.5.5 0 0 0 1 0V2.5Zm2.54.5a.75.75 0 1 0 0 1.5h8.5a.75.75 0 0 0 0-1.5h-8.5Zm0 8.5a.75.75 0 0 0 0 1.5h8.5a.75.75 0 0 0 0-1.5h-8.5ZM5 8a.75.75 0 0 1 .75-.75h8.5a.75.75 0 0 1 0 1.5h-8.5A.75.75 0 0 1 5 8Zm-2.596-.67c-.07.051-.087.097-.09.116a.5.5 0 0 1-.988-.149c.051-.345.26-.61.495-.779.236-.169.531-.268.83-.268.345 0 .666.109.902.343.236.234.337.543.337.85 0 .51-.321.855-.76 1.278a.495.495 0 0 1-.02.018l-.013.011h.493a.5.5 0 0 1 0 1H1.75a.5.5 0 0 1-.326-.879l1.022-.88c.223-.216.338-.344.398-.434.046-.069.046-.092.046-.111v-.002c0-.09-.027-.127-.041-.141-.013-.013-.062-.053-.199-.053a.439.439 0 0 0-.246.08ZM1.9 10.5a.5.5 0 0 0 0 1h.38l-.15.18a.5.5 0 0 0 .383.82c.259 0 .365.077.407.122.051.054.08.133.08.218a.02.02 0 0 1-.004.014.188.188 0 0 1-.057.052.702.702 0 0 1-.371.094.545.545 0 0 1-.258-.057c-.059-.032-.075-.061-.076-.064a.5.5 0 0 0-.91.416c.213.464.728.705 1.244.705.319 0 .651-.082.92-.258.275-.181.512-.487.512-.902 0-.293-.096-.634-.355-.906a1.28 1.28 0 0 0-.252-.206l.34-.407a.5.5 0 0 0-.383-.821H1.9Z" clip-rule="evenodd"/></svg>