<svg xmlns="http://www.w3.org/2000/svg" width="16" height="16" fill="none" viewBox="0 0 16 16"><path fill="currentColor" fill-rule="evenodd" d="M10.418 2.489c.9-1.196 2.382-1.724 3.154-1.391.852.367 1.539 2.08 1.054 3.702a4 4 0 0 1-2.616 5.559c.309.471.49 1.035.49 1.641v2.25a.75.75 0 0 1-1.5 0V12a1.5 1.5 0 0 0-3 0v2.25a.75.75 0 0 1-1.5 0v-.75h-.876a2.626 2.626 0 0 1-2.625-2.625c0-.621-.504-1.125-1.125-1.125h-.125a.75.75 0 0 1 0-1.5h.125a2.625 2.625 0 0 1 2.625 2.625c0 .621.504 1.125 1.125 1.125H6.5c0-.606.18-1.17.488-1.641A4 4 0 0 1 4.373 4.8c-.484-1.623.202-3.335 1.054-3.702.772-.333 2.254.195 3.155 1.39zm2.549.02a1.4 1.4 0 0 0-.35.098 2.5 2.5 0 0 0-1 .784l-.451.598H7.834l-.45-.598a2.5 2.5 0 0 0-1.001-.784 1.4 1.4 0 0 0-.352-.099c-.063.088-.14.231-.204.429a2.5 2.5 0 0 0-.016 1.434l.163.546-.242.517c-.13.279-.21.586-.228.913l-.004.142a2.5 2.5 0 0 0 2.5 2.5h3a2.5 2.5 0 0 0 2.267-3.555l-.242-.517.163-.547a2.5 2.5 0 0 0-.016-1.433 1.6 1.6 0 0 0-.205-.429" clip-rule="evenodd"/></svg>