<svg xmlns="http://www.w3.org/2000/svg" width="16" height="16" fill="none" viewBox="0 0 16 16"><path fill="currentColor" fill-rule="evenodd" d="M11 12.5h2a.5.5 0 0 0 .5-.5v-2a.5.5 0 0 0-.5-.5h-2a.5.5 0 0 0-.5.5v2a.5.5 0 0 0 .5.5m2 1.5a2 2 0 0 0 2-2v-2a2 2 0 0 0-2-2h-1.85l-.847-1.482A2 2 0 0 0 11 5V3a2 2 0 0 0-2-2H7a2 2 0 0 0-2 2v2c0 .607.27 1.151.697 1.518L4.85 8H3a2 2 0 0 0-2 2v2a2 2 0 0 0 2 2h2a2 2 0 0 0 2-2v-2c0-.607-.27-1.151-.697-1.518L7.15 7h1.7l.848 1.482C9.27 8.85 9 9.392 9 10v2a2 2 0 0 0 2 2zM3 12.5h2a.5.5 0 0 0 .5-.5v-2a.5.5 0 0 0-.5-.5H3a.5.5 0 0 0-.5.5v2a.5.5 0 0 0 .5.5m6-7H7a.5.5 0 0 1-.5-.5V3a.5.5 0 0 1 .5-.5h2a.5.5 0 0 1 .5.5v2a.5.5 0 0 1-.5.5" clip-rule="evenodd"/></svg>