<svg xmlns="http://www.w3.org/2000/svg" width="16" height="16" fill="none" viewBox="0 0 16 16"><g fill="currentColor"><path fill-rule="evenodd" d="M10.657 3.776a3.84 3.84 0 0 1 3.382 1.991 2.79 2.79 0 0 0-2.024 2.68c0 1.295.884 2.38 2.081 2.694-.536 1.402-1.45 2.687-2.637 3.563-.693.51-1.62.21-2.427-.086a3 3 0 0 0-2.065 0c-.808.297-1.735.596-2.428.085C2.174 12.956.889 9.589 1.533 6.9c.374-1.768 1.882-3.125 3.81-3.125a4 4 0 0 1 1.93.502 1.51 1.51 0 0 0 1.451 0 3.96 3.96 0 0 1 1.933-.502m0 1.5c-.44 0-.848.115-1.203.312-.898.5-2.012.5-2.909.001a2.5 2.5 0 0 0-1.203-.313c-1.17 0-2.104.812-2.341 1.934l-.01.04c-.491 2.055.517 4.808 2.415 6.227a.6.6 0 0 0 .133-.004c.22-.025.5-.113.912-.264l.183-.062a4.5 4.5 0 0 1 2.915.063c.412.15.692.239.912.264.069.008.11.005.131.003a6.1 6.1 0 0 0 1.523-1.696 4.27 4.27 0 0 1-1.6-3.334l.004-.184a4.26 4.26 0 0 1 1.167-2.756 2.4 2.4 0 0 0-1.03-.231" clip-rule="evenodd"/><path d="M10.29.025a.385.385 0 0 1 .504.429c-.07.516-.264 1.295-.79 1.913-.527.617-1.266.93-1.764 1.082a.385.385 0 0 1-.504-.429c.07-.516.264-1.295.79-1.913C9.052.49 9.791.177 10.29.025"/></g></svg>