<svg xmlns="http://www.w3.org/2000/svg" width="16" height="16" fill="none" viewBox="0 0 16 16"><g fill="currentColor"><path fill-rule="evenodd" d="M12.694 1.702a.25.25 0 0 1 .235.337l-1.196 3.222a1.6 1.6 0 0 1-.164.32q.143-.025.29-.024l3.544.023a.25.25 0 0 1 .23.343l-1.216 3.052-.597 1.518c-.225.562-.456 1.112-.634 1.45l-.001.002c-.345.653-.78 1.231-1.374 1.625-.593.394-1.28.565-1.994.642-.702.075-1.897.092-2.892.082h-.002l-3.736-.05a.25.25 0 0 1-.23-.34L4.201 10.7q.039-.097.09-.19a2 2 0 0 1-.14.009l-3.542.029a.25.25 0 0 1-.236-.339l1.17-3.071c.293-.773.841-2.303 1.188-2.985v-.001c.335-.66.762-1.245 1.35-1.648.587-.402 1.27-.584 1.984-.67.7-.087 1.894-.121 2.89-.126h.002zm-.844 5.355a.11.11 0 0 0-.1.066l-.086.217c-.304.773-.563 1.427-.838 1.943h.001c-.286.548-.622.996-1.125 1.33-.502.333-1.028.464-1.663.53h-.002c-.442.046-.947.055-2.15.035l-.188-.003a.11.11 0 0 0-.1.068l-.592 1.525 1.936.026c.995.01 2.109-.008 2.713-.073.593-.064 1.012-.192 1.325-.4.31-.206.599-.549.877-1.076.307-.583.827-1.969 1.166-2.823v-.001l.538-1.353zm-1.344-.775q-.136.025-.276.026h-.193c-1.208-.001-1.63.016-1.97.055-.51.062-.766.155-.986.305s-.403.367-.613.783l-.003.006c-.22.427-.436.995-.741 1.806h-.001l-.082.219q-.041.105-.094.2.085-.008.172-.006l.19.002h.003c1.208.02 1.63.008 1.971-.026l.18-.022c.394-.055.616-.139.81-.268.221-.146.41-.36.625-.774l.003-.006c.226-.424.45-.988.768-1.794l.087-.218q.06-.153.15-.288M8.961 3.207zc-.996.005-2.11.04-2.715.113-.591.073-1.009.208-1.318.42-.308.211-.591.559-.861 1.09-.299.59-.797 1.982-1.123 2.84v.001l-.519 1.36L4.14 9.02a.11.11 0 0 0 .098-.069l.082-.217c.294-.78.543-1.441.811-1.962.278-.55.606-1 1.102-1.34s1.021-.48 1.656-.557h.002c.44-.052.944-.067 2.145-.065l.19-.001a.11.11 0 0 0 .1-.07l.57-1.534z" clip-rule="evenodd"/><path d="M11.732 5.26a1.6 1.6 0 0 1-.162.322q.14-.026.29-.025l3.542.024a.25.25 0 0 1 .23.342l-1.215 3.052c-.304.768-.875 2.29-1.232 2.969-.345.655-.78 1.233-1.375 1.627-.592.393-1.28.565-1.993.642-.702.075-1.897.091-2.892.081h-.002l-3.736-.05a.25.25 0 0 1-.23-.34L4.2 10.7q.038-.097.089-.19a2 2 0 0 1-.138.009l-3.543.029a.25.25 0 0 1-.236-.34l1.17-3.07c.293-.773.841-2.303 1.187-2.986.336-.66.763-1.244 1.35-1.648.587-.402 1.272-.584 1.985-.67.7-.087 1.895-.121 2.89-.126h.002l3.737-.006a.25.25 0 0 1 .235.337zm.117 1.797a.11.11 0 0 0-.1.067l-.085.216c-.305.773-.563 1.427-.838 1.943-.286.548-.621.996-1.124 1.33-.502.333-1.028.464-1.663.53l-.002.001c-.442.045-.947.054-2.15.034l-.188-.003a.11.11 0 0 0-.1.068l-.592 1.525 1.936.026c.995.01 2.109-.008 2.713-.073.593-.063 1.012-.192 1.325-.4.31-.206.599-.549.877-1.076.307-.584.826-1.97 1.165-2.823v-.001l.539-1.353zm-1.343-.774q-.136.024-.276.025h-.193c-1.208-.001-1.63.016-1.97.056-.51.061-.767.154-.986.305-.22.15-.403.366-.613.783l-.003.006c-.22.427-.436.994-.742 1.805v.001l-.083.218q-.04.105-.093.201.084-.008.172-.007l.19.002h.003c1.208.02 1.629.009 1.97-.026l.18-.022c.395-.054.617-.139.81-.268.222-.146.41-.36.626-.774l.003-.005c.226-.424.45-.989.768-1.794v-.002l.086-.216q.061-.153.15-.288M8.96 3.208c-.995.005-2.11.04-2.714.114-.591.072-1.009.207-1.318.42-.308.21-.591.558-.861 1.09-.299.589-.797 1.98-1.122 2.839v.001l-.52 1.36 1.713-.013a.11.11 0 0 0 .099-.069l.083-.217c.293-.78.542-1.441.81-1.962.278-.55.606-1 1.102-1.34s1.021-.48 1.655-.556h.002c.441-.052.945-.068 2.146-.066h.19a.11.11 0 0 0 .1-.07l.57-1.534z"/></g></svg>