<svg xmlns="http://www.w3.org/2000/svg" width="16" height="16" fill="none" viewBox="0 0 16 16"><g clip-path="url(#a)"><path fill="currentColor" fill-rule="evenodd" d="M7.5.4a.4.4 0 0 1 .4-.4h.7c.22 0 .4.18.4.4v.7a.4.4 0 0 1-.4.4h-.7a.4.4 0 0 1-.4-.4V.4Zm.4 2.1a.4.4 0 0 0-.4.4v.7c0 .22.179.4.4.4h.7a.4.4 0 0 0 .4-.4v-.7a.4.4 0 0 0-.4-.4h-.7Zm-.4 2.9a.4.4 0 0 1 .4-.4h.7c.22 0 .4.18.4.4v.7a.4.4 0 0 1-.4.4h-.7a.4.4 0 0 1-.4-.4v-.7Zm2.536 1.604.006-.024c.061-.266.167-.692.395-1.107.554-1.011 2.031-1.13 2.697-.096.114.178.21.372.291.562.106.248.305.364.527.36.24-.006.499.005.745.051a1.57 1.57 0 0 1 1.15 2.165c-.379.881-1.166 1.443-1.81 1.704-.354.143-.553.311-.638.476C12.015 13.763 9.401 16.01 6.088 16c-2.03 0-4.55-.748-5.556-2.853-.456-.955-.588-2.134-.512-3.063.038-.466.137-.997.363-1.462.2-.413.744-1.222 1.808-1.222h6.575v1.5H2.191c-.764 0-.936 2.28-.306 3.6.631 1.32 2.386 2 4.205 2 2.582.008 4.762-1.753 5.977-4.096.199-.382.495-.661.809-.867a3.378 3.378 0 0 1 .597-.308c.179-.073.362-.18.526-.312.14-.115.267-.249.364-.398a1.45 1.45 0 0 0 .107-.197.07.07 0 0 0-.051-.098 1.674 1.674 0 0 0-.232-.024 3.114 3.114 0 0 0-.204-.002 2.034 2.034 0 0 1-1.937-1.27 2.795 2.795 0 0 0-.174-.339.07.07 0 0 0-.12.005c-.02.035-.037.07-.054.107-.064.14-.112.29-.151.44-.016.059-.03.117-.043.175-.02.103-.035.195-.048.281-.023.146-.042.273-.081.395a1.18 1.18 0 0 1-.2.376 1.756 1.756 0 0 1-.115.132c-.383.4-1.725.43-2.294.4V7.4h.04l.04.002c.219.012.609.011.96-.03.064-.008.121-.016.17-.024.014-.085.032-.2.055-.319l.005-.025Zm.65.504a1.582 1.582 0 0 1-.075-.107l-.001-.002.013.024c.01.02.025.052.043.094l.02-.01ZM5.4 5a.4.4 0 0 0-.4.4v.7c0 .22.179.4.4.4h.7a.4.4 0 0 0 .4-.4v-.7a.4.4 0 0 0-.4-.4h-.7ZM5 2.9a.4.4 0 0 1 .4-.4h.7c.22 0 .4.18.4.4v.7a.4.4 0 0 1-.4.4h-.7a.4.4 0 0 1-.4-.4v-.7ZM2.9 5a.4.4 0 0 0-.4.4v.7c0 .22.179.4.4.4h.7a.4.4 0 0 0 .4-.4v-.7a.4.4 0 0 0-.4-.4h-.7Z" clip-rule="evenodd"/></g><defs><clipPath id="a"><path fill="currentColor" d="M0 0h16v16H0z"/></clipPath></defs></svg>