<svg xmlns="http://www.w3.org/2000/svg" width="16" height="16" fill="none" viewBox="0 0 16 16"><path fill="currentColor" fill-rule="evenodd" d="M1.507 2.906C1.63 1.086 3.637-.014 5.252.92l8.5 4.916c1.663.963 1.664 3.366 0 4.328l-2.328 1.346a.7.7 0 0 1-.228.132L5.252 15.08l-.157.084c-1.585.778-3.468-.308-3.588-2.069l-.008-.179.001-9.832zM3.37 13.693a.995.995 0 0 0 1.13.089l5.207-3.013-1.706-1.707zM3 11.943l3.941-3.94L3 4.06zm6.062-3.94 1.99 1.99L13 8.866a1 1 0 0 0 0-1.73l-1.946-1.127zM4.5 2.218a.995.995 0 0 0-1.13.089l4.631 4.634 1.709-1.71z" clip-rule="evenodd"/></svg>