<svg xmlns="http://www.w3.org/2000/svg" width="16" height="16" fill="none" viewBox="0 0 16 16"><g fill="currentColor"><path d="m9.346 1.034.103.027 3.673 1.145c.522.163.878.646.878 1.193v9.164a1.25 1.25 0 0 1-.85 1.185l-3.463 1.169a1.25 1.25 0 0 1-.863-.024l-6.037-2.407A1.25 1.25 0 0 1 2 11.326V4.554c0-.513.314-.975.791-1.163l5.827-2.3c.232-.09.486-.111.728-.058M3.5 4.724v6.431l.75.298V8.887l.001-3.399a.75.75 0 0 1 .563-.726l4.5-1.153a.75.75 0 0 1 .937.727V11.5a.75.75 0 0 1-.827.746l-4.294-.441 4.165 1.66 3.205-1.081V3.583L9.087 2.519zM5.75 6.07v4.29l3.001.309V5.302z"/><path d="M8.719 1.059c.203-.061.42-.07.627-.024l.103.028 3.673 1.144c.522.163.878.646.878 1.193v9.165a1.25 1.25 0 0 1-.85 1.184l-3.463 1.168a1.25 1.25 0 0 1-.863-.022l-6.037-2.409A1.25 1.25 0 0 1 2 11.326v-6.77c0-.513.314-.975.791-1.163l5.827-2.3zM3.5 4.726v6.43l.75.3V5.487a.75.75 0 0 1 .564-.726l4.5-1.153a.75.75 0 0 1 .936.727V11.5a.75.75 0 0 1-.826.746l-4.295-.44 4.165 1.66 3.206-1.082V3.583L9.087 2.52zM5.75 6.07v4.291l3 .308V5.302z"/></g></svg>