<svg xmlns="http://www.w3.org/2000/svg" width="16" height="16" fill="none" viewBox="0 0 16 16"><path fill="currentColor" fill-rule="evenodd" d="M6.854 3.47a2.711 2.711 0 0 1 1.934.102l.618.275c.072.032.14.069.205.11.003-.126.01-.251.023-.377l.05-.495a1.441 1.441 0 1 0-2.868 0l.038.384Zm3.243 2.725a1.61 1.61 0 0 1-.423.433L7.95 7.835a1 1 0 0 1-1.468-.372l-.23-.46-.99 2.226a3.037 3.037 0 0 0-.217 1.758c.46.333.81.817.968 1.393l.123.451c.52.419 1.181.669 1.901.669h.54c.036 0 .07 0 .105-.002l.305-1.118a2.564 2.564 0 0 1 2.98-1.829 3.423 3.423 0 0 0-.605-2.463l-.84-1.177a4.897 4.897 0 0 1-.425-.716Zm3.242 5.135a4.93 4.93 0 0 0-.756-4.114l-.841-1.177a3.392 3.392 0 0 1-.615-2.31l.05-.495a2.941 2.941 0 1 0-5.854 0l.08.8a3.668 3.668 0 0 1-.298 1.854L3.891 8.62a4.537 4.537 0 0 0-.39 1.88A2.539 2.539 0 0 0 1 13.027c0 1.16.79 2.17 1.914 2.452l1.92.48a1.396 1.396 0 0 0 1.727-1.204c.463.159.96.245 1.476.245h.451a1.396 1.396 0 0 0 1.679.958l1.919-.48A2.527 2.527 0 0 0 14 13.027c0-.653-.25-1.248-.66-1.697ZM8.18 4.943l.617.275c.03.013.04.025.044.032.008.01.016.029.018.053a.115.115 0 0 1-.007.056c-.004.008-.01.022-.037.04l-1.25.875-.549-1.097a.127.127 0 0 1 .048-.166 1.211 1.211 0 0 1 1.115-.068Zm-4.901 9.08 1.747.437-.46-1.685A1.064 1.064 0 0 0 3.542 12c-.578 0-1.041.47-1.041 1.027 0 .471.32.882.778.996Zm6.697.437 1.747-.437c.457-.114.778-.525.778-.996 0-.557-.463-1.027-1.04-1.027-.482 0-.903.324-1.026.775l-.46 1.685Z" clip-rule="evenodd"/></svg>