<svg xmlns="http://www.w3.org/2000/svg" width="16" height="16" fill="none" viewBox="0 0 16 16"><g clip-path="url(#a)"><path fill="currentColor" fill-rule="evenodd" d="M7.363 1.5c-.094.007-.377.122-.377.622 0 .593.12 1.248.337 1.927.209-.799.319-1.463.319-1.927 0-.359-.097-.513-.144-.565a.155.155 0 0 0-.135-.057Zm.885 4.637c.061-.175.12-.347.174-.518.431-1.326.72-2.587.72-3.497 0-.625-.173-1.173-.53-1.57A1.653 1.653 0 0 0 7.265.004c-.984.064-1.779.933-1.779 2.118 0 1.314.44 2.758 1.126 4.13a31.082 31.082 0 0 1-1.465 3.305c-.9.302-1.745.648-2.475 1.025-.714.368-1.352.783-1.822 1.24-.46.448-.85 1.026-.85 1.714 0 .465.157.91.488 1.243.33.332.776.491 1.242.491.541 0 1.038-.242 1.458-.547.428-.311.844-.738 1.24-1.225.604-.744 1.203-1.683 1.758-2.699a24.497 24.497 0 0 1 3.143-.739 11.26 11.26 0 0 0 1.606 1.369c.925.639 1.945 1.086 2.943 1.086.507 0 1.034-.126 1.45-.46.438-.353.672-.871.672-1.47 0-.758-.412-1.313-.983-1.66-.535-.327-1.231-.49-1.958-.563-.925-.092-2.02-.047-3.167.1a14.055 14.055 0 0 1-1.644-2.325Zm-.675 1.76a32.96 32.96 0 0 1-.481 1.095 26.209 26.209 0 0 1 1.093-.246 15.666 15.666 0 0 1-.612-.849Zm3.734 1.938c.16.13.321.25.481.36.802.554 1.521.82 2.09.82.277 0 .436-.07.51-.13.052-.041.112-.113.112-.3 0-.129-.04-.244-.263-.38-.258-.156-.695-.288-1.327-.35a10.518 10.518 0 0 0-1.603-.02Zm-7.374 1.803c-.2.09-.391.183-.574.277-.645.333-1.14.668-1.463.982-.334.326-.396.54-.396.639 0 .126.039.172.05.184.013.012.057.05.18.05.095 0 .284-.047.576-.26.285-.207.608-.528.957-.957.221-.273.446-.58.67-.915Z" clip-rule="evenodd"/></g><defs><clipPath id="a"><path fill="currentColor" d="M0 0h16v16H0z"/></clipPath></defs></svg>