<svg xmlns="http://www.w3.org/2000/svg" width="16" height="16" fill="none" viewBox="0 0 16 16"><g fill="currentColor"><path d="M9.566 1.008a2.31 2.31 0 0 1 2.312 2.311v.971a2.31 2.31 0 0 1 3.124 2.16c0 .601-.232 1.146-.608 1.557a2.312 2.312 0 0 1-1.698 3.877h-.969a2.31 2.31 0 0 1-3.72 2.516 2.3 2.3 0 0 1-1.557.608 2.31 2.31 0 0 1-2.311-2.312v-.969a2.3 2.3 0 0 1-.82.154 2.31 2.31 0 0 1-2.311-2.31c0-.602.232-1.148.61-1.56a2.3 2.3 0 0 1-.61-1.56A2.31 2.31 0 0 1 3.319 4.14h.966a2.31 2.31 0 0 1 3.719-2.521c.411-.38.96-.611 1.562-.611M6.448 8.763h-.1a.81.81 0 0 0-.71.804v3.13a.812.812 0 0 0 1.62.07l-.003-.07v-1.558q0-.05.007-.098V9.71q-.006-.068-.007-.138l.003-.073a.81.81 0 0 0-.738-.74zm2.314 3.933q-.001.036-.004.07a.813.813 0 0 0 1.62-.068.81.81 0 0 0-.81-.81h-.806zm.804-3.935a.81.81 0 0 0-.808.738c0 .023.004.046.004.068v.106c.05.4.39.71.804.71h3.13a.812.812 0 0 0 0-1.622zm-6.257 0a.81.81 0 0 0 .01 1.62.813.813 0 0 0 .812-.812v-.806h-.812zm.01-3.121a.812.812 0 0 0-.01 1.622h3.004q.067-.004.137-.006l.07.003a.81.81 0 0 0 .737-.759l-.002-.052v-.087a.81.81 0 0 0-.807-.721zm6.247-3.132a.81.81 0 0 0-.811.811v3.034l.005.098-.003.049a.812.812 0 0 0 1.62-.052V3.32a.81.81 0 0 0-.81-.811m3.125 3.133a.813.813 0 0 0-.812.811v.808h.813a.81.81 0 1 0 0-1.62M6.442 2.508a.81.81 0 0 0 0 1.619h.813v-.808a.81.81 0 0 0-.813-.811"/><path fill-rule="evenodd" d="M9.566 1.008a2.31 2.31 0 0 1 2.312 2.311v.971A2.305 2.305 0 0 1 15 6.45a2.3 2.3 0 0 1-.608 1.558c.38.412.614.96.614 1.564a2.31 2.31 0 0 1-2.312 2.312h-.968a2.3 2.3 0 0 1 .15.814 2.31 2.31 0 0 1-3.87 1.701 2.3 2.3 0 0 1-1.558.609 2.31 2.31 0 0 1-2.311-2.312v-.967a2.31 2.31 0 0 1-3.13-2.156 2.3 2.3 0 0 1 .61-1.561 2.3 2.3 0 0 1-.61-1.56 2.31 2.31 0 0 1 2.311-2.311h.966A2.302 2.302 0 0 1 6.44 1.008c.603 0 1.151.233 1.563.611.412-.378.96-.611 1.562-.611M6.448 8.764h-.106a.81.81 0 0 0-.704.803v3.13a.812.812 0 0 0 1.62.06l-.003-.06v-1.558q0-.045.006-.09V9.69q-.004-.058-.006-.118l.003-.063a.81.81 0 0 0-.733-.75c-.025 0-.051.005-.077.005m2.313 3.932-.004.06a.813.813 0 0 0 1.62-.058.81.81 0 0 0-.809-.81h-.807zm.805-3.935a.81.81 0 0 0-.808.748l.003.058v.1c.047.403.39.717.805.717h3.13a.812.812 0 0 0 0-1.623zm-6.257.002a.81.81 0 0 0 .01 1.619.813.813 0 0 0 .812-.812v-.806h-.812zm.01-3.122a.812.812 0 0 0-.01 1.622h2.983q.078-.006.157-.007l.072.003a.81.81 0 0 0 .736-.759l-.002-.052-.001-.086a.81.81 0 0 0-.806-.721zm6.247-3.133a.81.81 0 0 0-.812.811v3.034c.001.032.006.066.006.1l-.003.047a.812.812 0 0 0 1.62-.048V3.32a.81.81 0 0 0-.81-.811M12.69 5.64a.813.813 0 0 0-.812.811v.808h.813a.81.81 0 1 0 0-1.62m-6.25-3.131a.81.81 0 0 0 0 1.619h.813v-.808l-.004-.083a.813.813 0 0 0-.809-.728" clip-rule="evenodd"/></g></svg>