<svg xmlns="http://www.w3.org/2000/svg" width="16" height="16" fill="none" viewBox="0 0 16 16"><path fill="currentColor" fill-rule="evenodd" d="M2.5 8a5.5 5.5 0 0 1 5.492-5.5c1.318.032 1.88.796 2.02 1.48.027.137.02.389-.027.713a7.242 7.242 0 0 1-.042.26l-1.759.308h-.001c-.838.144-1.537.432-2.068.933-.535.504-.829 1.155-.98 1.887l-.444 2.146a.734.734 0 0 0-.009.043l-.02.098c-.034.168-.091.444-.132.725-.047.325-.09.763-.025 1.154A5.489 5.489 0 0 1 2.5 8Zm5.501 7a7 7 0 0 0 .002-14h-.006a7 7 0 0 0 .001 14h.003Zm.007-1.5c-1.318-.032-1.88-.796-2.02-1.48-.027-.137-.02-.389.027-.713a7.25 7.25 0 0 1 .042-.26l1.759-.308h.001c.838-.144 1.537-.432 2.068-.933.535-.504.829-1.155.98-1.887l.444-2.146a.857.857 0 0 0 .009-.043c.005-.026.011-.059.02-.097.034-.17.092-.446.132-.726.047-.325.09-.763.024-1.154A5.5 5.5 0 0 1 8.008 13.5ZM9.62 6.532l-1.18.207h-.002c-.652.112-1.044.31-1.295.547-.247.233-.43.57-.539 1.098L6.38 9.468l1.18-.207h.002c.652-.112 1.044-.31 1.295-.547.247-.233.43-.57.539-1.098l.224-1.084Z" clip-rule="evenodd"/></svg>