<svg xmlns="http://www.w3.org/2000/svg" width="16" height="16" fill="none" viewBox="0 0 16 16"><g fill="currentColor"><path d="M9.884 4.915a.75.75 0 0 1 1.342.67C10.75 6.536 9.49 7.268 8 7.268s-2.75-.732-3.226-1.683a.75.75 0 0 1 1.342-.67c.164.326.82.853 1.884.853s1.72-.527 1.884-.853"/><path fill-rule="evenodd" d="M11.5 1.5a3 3 0 0 1 3 3v7a3 3 0 0 1-2.846 2.996l-.154.004h-7l-.154-.004a3 3 0 0 1-2.842-2.842L1.5 11.5v-7a3 3 0 0 1 3-3zM4.5 3A1.5 1.5 0 0 0 3 4.5v7A1.5 1.5 0 0 0 4.5 13h7a1.5 1.5 0 0 0 1.5-1.5v-7A1.5 1.5 0 0 0 11.5 3z" clip-rule="evenodd"/></g></svg>