<svg xmlns="http://www.w3.org/2000/svg" width="16" height="16" fill="none" viewBox="0 0 16 16"><path fill="currentColor" fill-rule="evenodd" d="M13 5.46v3.08a2.94 2.94 0 0 0-.976 0 4.15 4.15 0 0 0-.274.055C10.231 8.96 9 10.263 9 11.505c0 1.243 1.231 1.955 2.75 1.59 1.519-.364 2.75-1.667 2.75-2.91 0-.038-.001-.076-.004-.113A.745.745 0 0 0 14.5 10V1.25a.75.75 0 0 0-.932-.728L6.136 2.38l-.568.142A.75.75 0 0 0 5 3.25v7.291a2.941 2.941 0 0 0-.976 0c-.09.014-.181.032-.274.054C2.231 10.96 1 12.263 1 13.505c0 1.243 1.231 1.955 2.75 1.59 1.519-.364 2.75-1.667 2.75-2.91 0-.038-.001-.076-.003-.113A.758.758 0 0 0 6.5 12V7.086L13 5.46Zm0-1.546V2.211L6.5 3.836v1.703l6.136-1.534.364-.09Zm-8.003 8.127a1.5 1.5 0 0 0 .003.144c0 .133-.079.419-.396.754a2.497 2.497 0 0 1-1.204.698c-.47.113-.748.023-.844-.032a.215.215 0 0 1-.047-.036l-.001-.002-.003-.007a.214.214 0 0 1-.005-.054c0-.133.079-.419.396-.754a2.5 2.5 0 0 1 1.204-.698 1.58 1.58 0 0 1 .637-.037c.086.016.173.024.26.024Zm8-2a1.465 1.465 0 0 0 .003.144c0 .133-.079.419-.396.754a2.497 2.497 0 0 1-1.204.698c-.47.113-.748.023-.844-.032a.214.214 0 0 1-.047-.036l-.001-.002-.003-.007a.216.216 0 0 1-.005-.054c0-.133.079-.419.396-.754a2.497 2.497 0 0 1 1.204-.698 1.58 1.58 0 0 1 .637-.037c.086.016.173.024.26.024Z" clip-rule="evenodd"/></svg>