<svg xmlns="http://www.w3.org/2000/svg" width="16" height="16" fill="none" viewBox="0 0 16 16"><path fill="currentColor" fill-rule="evenodd" d="M13 5.46v3.08a3 3 0 0 0-.976 0q-.135.022-.274.055C10.231 8.96 9 10.263 9 11.505s1.231 1.955 2.75 1.59c1.519-.364 2.75-1.667 2.75-2.91q0-.057-.004-.113L14.5 10V1.25a.75.75 0 0 0-.932-.728L6.136 2.38l-.568.142A.75.75 0 0 0 5 3.25v7.291a3 3 0 0 0-.976 0q-.135.021-.274.054C2.231 10.96 1 12.263 1 13.506s1.231 1.955 2.75 1.59c1.519-.364 2.75-1.667 2.75-2.91q0-.057-.003-.113L6.5 12V7.086zm0-1.546V2.211L6.5 3.836v1.703l6.136-1.534zm-8.003 8.127a2 2 0 0 0 .003.144c0 .133-.079.419-.396.754a2.5 2.5 0 0 1-1.204.698c-.47.113-.748.023-.844-.032a.2.2 0 0 1-.047-.036l-.001-.002-.003-.007a.2.2 0 0 1-.005-.054c0-.133.079-.419.396-.754a2.5 2.5 0 0 1 1.204-.698 1.6 1.6 0 0 1 .637-.037q.13.024.26.024m8-2a2 2 0 0 0 .003.144c0 .133-.079.419-.396.754a2.5 2.5 0 0 1-1.204.698c-.47.113-.748.023-.844-.032a.2.2 0 0 1-.047-.036l-.001-.002-.003-.007a.2.2 0 0 1-.005-.054c0-.133.079-.419.396-.754a2.5 2.5 0 0 1 1.204-.698 1.6 1.6 0 0 1 .637-.037q.13.024.26.024" clip-rule="evenodd"/></svg>