<svg xmlns="http://www.w3.org/2000/svg" width="16" height="16" fill="none" viewBox="0 0 16 16"><path fill="currentColor" fill-rule="evenodd" d="M1.75 14a.75.75 0 0 1 0-1.5h12.5a.75.75 0 0 1 0 1.5zM5.5 9.5H4a.5.5 0 0 1-.5-.5V3.5A.5.5 0 0 1 4 3h1.5a.5.5 0 0 1 .5.5V9a.5.5 0 0 1-.5.5M4 11a2 2 0 0 1-2-2V3.5a2 2 0 0 1 2-2h1.5a2 2 0 0 1 2 2V9a2 2 0 0 1-2 2zm8-1.5h-1.5A.5.5 0 0 1 10 9V7a.5.5 0 0 1 .5-.5H12a.5.5 0 0 1 .5.5v2a.5.5 0 0 1-.5.5M10.5 11a2 2 0 0 1-2-2V7a2 2 0 0 1 2-2H12a2 2 0 0 1 2 2v2a2 2 0 0 1-2 2z" clip-rule="evenodd"/></svg>