<svg xmlns="http://www.w3.org/2000/svg" width="16" height="16" fill="none" viewBox="0 0 16 16"><path fill="currentColor" fill-rule="evenodd" d="M15 14.25a.75.75 0 0 1-.75.75H1.75a.75.75 0 0 1 0-1.5h12.5a.75.75 0 0 1 .75.75M12 11h-1.5a.5.5 0 0 1-.5-.5v-5a.5.5 0 0 1 .5-.5H12a.5.5 0 0 1 .5.5v5a.5.5 0 0 1-.5.5m2-.5a2 2 0 0 1-2 2h-1.5a2 2 0 0 1-2-2v-5a2 2 0 0 1 2-2H12a2 2 0 0 1 2 2zm-8.5.5H4a.5.5 0 0 1-.5-.5v-5A.5.5 0 0 1 4 5h1.5a.5.5 0 0 1 .5.5v5a.5.5 0 0 1-.5.5m2-.5a2 2 0 0 1-2 2H4a2 2 0 0 1-2-2v-5a2 2 0 0 1 2-2h1.5a2 2 0 0 1 2 2zM14.25 1a.75.75 0 0 1 0 1.5H1.75a.75.75 0 0 1 0-1.5z" clip-rule="evenodd"/></svg>