<svg xmlns="http://www.w3.org/2000/svg" width="16" height="16" fill="none" viewBox="0 0 16 16"><path fill="currentColor" fill-rule="evenodd" d="M14 1.75a.75.75 0 0 0-1.5 0v12.5a.75.75 0 0 0 1.5 0zM9.5 5.5V4a.5.5 0 0 0-.5-.5H3.5A.5.5 0 0 0 3 4v1.5a.5.5 0 0 0 .5.5H9a.5.5 0 0 0 .5-.5M11 4a2 2 0 0 0-2-2H3.5a2 2 0 0 0-2 2v1.5a2 2 0 0 0 2 2H9a2 2 0 0 0 2-2zm-1.5 8v-1.5A.5.5 0 0 0 9 10H7a.5.5 0 0 0-.5.5V12a.5.5 0 0 0 .5.5h2a.5.5 0 0 0 .5-.5m1.5-1.5a2 2 0 0 0-2-2H7a2 2 0 0 0-2 2V12a2 2 0 0 0 2 2h2a2 2 0 0 0 2-2z" clip-rule="evenodd"/></svg>