<svg xmlns="http://www.w3.org/2000/svg" width="16" height="16" fill="none" viewBox="0 0 16 16"><path fill="currentColor" fill-rule="evenodd" d="M10 4.5a2 2 0 1 1-4 0 2 2 0 0 1 4 0m1.5 0a3.5 3.5 0 1 1-7 0 3.5 3.5 0 0 1 7 0m-9 8c0-.204.22-.809 1.32-1.459C4.838 10.44 6.32 10 8 10s3.162.44 4.18 1.041c1.1.65 1.32 1.255 1.32 1.459a1 1 0 0 1-1 1h-.25a.75.75 0 0 0 0 1.5h.25a2.5 2.5 0 0 0 2.5-2.5c0-2-3.15-4-7-4s-7 2-7 4A2.5 2.5 0 0 0 3.5 15h.25a.75.75 0 0 0 0-1.5H3.5a1 1 0 0 1-1-1m3.335-.92a.75.75 0 0 0-.68 1.336l.02.012q.034.02.11.074c.098.074.237.195.38.373.193.242.404.604.512 1.125H5.75a.75.75 0 0 0 0 1.5h4.5a.75.75 0 0 0 0-1.5h-.427c.108-.52.319-.883.513-1.125.142-.178.281-.299.38-.373a1 1 0 0 1 .128-.086.75.75 0 0 0-.68-1.337l.336.671a61 61 0 0 0-.336-.67h-.003l-.004.003-.01.005-.1.058a3 3 0 0 0-.231.156 3.6 3.6 0 0 0-.652.636c-.377.471-.733 1.146-.863 2.062H7.7c-.13-.916-.486-1.59-.863-2.062a3.6 3.6 0 0 0-.652-.636 3 3 0 0 0-.331-.214l-.01-.005-.004-.002-.002-.001c-.001 0-.002 0-.337.67z" clip-rule="evenodd"/></svg>