<svg xmlns="http://www.w3.org/2000/svg" width="16" height="16" fill="none" viewBox="0 0 16 16"><path fill="currentColor" fill-rule="evenodd" d="m13.441 6.301.003-.003.004-.003c.024-.02.12-.102-.008-.504-.148-.467-.55-1.107-1.233-1.791-.684-.684-1.324-1.085-1.79-1.233-.402-.128-.485-.031-.505-.008l-.003.003-.003.004c-.024.02-.12.102.007.504.149.467.55 1.107 1.233 1.79.684.684 1.324 1.086 1.791 1.234.402.127.484.031.505.007Zm-3.355-.18c.302.303.613.574.926.807L9.946 8.883l-.399.73.41.726c.365.645.514 1.146.534 1.487.018.295-.056.422-.15.515-.101.102-.387.307-1.28-.037-.882-.34-1.987-1.108-3.122-2.243-1.135-1.136-1.903-2.24-2.243-3.122-.344-.894-.139-1.179-.037-1.28.093-.094.22-.168.515-.15.34.02.842.169 1.487.533l.725.41.731-.398 1.997-1.09c.267.39.595.78.972 1.157Zm1.177 3.48 1.055-1.935c.84.313 1.62.26 2.187-.307 1.06-1.061.325-2.858-1.237-4.42-1.562-1.562-3.359-2.298-4.42-1.237-.506.506-.603 1.18-.396 1.915l-2.053 1.12c-1.517-.858-2.91-1.03-3.801-.14-1.31 1.31-.323 3.705 1.762 5.982l-2.89 2.89a.75.75 0 1 0 1.06 1.061l2.89-2.89c2.278 2.084 4.672 3.072 5.982 1.762.891-.891.719-2.284-.139-3.801Z" clip-rule="evenodd"/></svg>