<svg xmlns="http://www.w3.org/2000/svg" width="16" height="16" fill="none" viewBox="0 0 16 16"><path fill="currentColor" fill-rule="evenodd" d="M5.731 4H4.5A1.5 1.5 0 0 0 3 5.5v.377a2.72 2.72 0 0 1 0 5.246v.377A1.5 1.5 0 0 0 4.5 13h.377a2.72 2.72 0 0 1 5.246 0h.377a1.5 1.5 0 0 0 1.5-1.5v-1.232l1-.353a1.501 1.501 0 0 0 0-2.83l-1-.354V5.5A1.5 1.5 0 0 0 10.5 4H9.269l-.354-1a1.501 1.501 0 0 0-2.83 0zM8.9 14.5l-.204-1.02a1.22 1.22 0 0 0-2.392 0L6.1 14.5H4.5a3 3 0 0 1-3-3V9.9l1.02-.204a1.22 1.22 0 0 0 0-2.392L1.5 7.1V5.5a3 3 0 0 1 3-3h.17a3.001 3.001 0 0 1 5.66 0h.17a3 3 0 0 1 3 3v.17a3.001 3.001 0 0 1 0 5.66v.17a3 3 0 0 1-3 3z" clip-rule="evenodd"/></svg>