<svg xmlns="http://www.w3.org/2000/svg" width="16" height="16" fill="none" viewBox="0 0 16 16"><g clip-path="url(#a)"><path fill="currentColor" fill-rule="evenodd" d="M12.411 6.33A2.751 2.751 0 0 1 14.5 9v.25A2.75 2.75 0 0 1 11.75 12h-.25a2.747 2.747 0 0 1-2.748-2.657V9.34H8.75V9c0-.131.01-.26.027-.386.02-.261.05-.518.09-.77a8.028 8.028 0 0 1 .559-1.918 7.207 7.207 0 0 1 2.162-2.801l.098-.076A.238.238 0 0 1 11.83 3c.186 0 .306.202.22.367a18.552 18.552 0 0 0-.22.433 17.949 17.949 0 0 0-.43.951 14.39 14.39 0 0 0-.557 1.578l.054-.013a2.76 2.76 0 0 1 .603-.066h.25c.228 0 .45.028.661.08Zm.549-1.405A4.252 4.252 0 0 1 16 9v.25a4.25 4.25 0 0 1-4.25 4.25h-.25A4.245 4.245 0 0 1 8 11.662 4.245 4.245 0 0 1 4.5 13.5h-.25A4.25 4.25 0 0 1 0 9.336V9c0-.183.012-.365.035-.543.207-2.62 1.358-4.966 3.488-6.599A1.738 1.738 0 0 1 4.58 1.5c1.341 0 2.146 1.425 1.548 2.564-.111.211-.26.508-.418.86.788.234 1.481.69 2.005 1.297a8.763 8.763 0 0 1 3.058-4.363A1.738 1.738 0 0 1 11.83 1.5c1.341 0 2.146 1.425 1.548 2.564-.111.211-.26.508-.418.86ZM5.16 6.33a2.756 2.756 0 0 0-.661-.08h-.25a2.76 2.76 0 0 0-.657.079 14.398 14.398 0 0 1 .68-1.865A17.736 17.736 0 0 1 4.8 3.367.251.251 0 0 0 4.58 3a.238.238 0 0 0-.144.049 7.737 7.737 0 0 0-.93.844 7.208 7.208 0 0 0-1.39 2.172 8.029 8.029 0 0 0-.498 1.779 8.753 8.753 0 0 0-.091.77A2.773 2.773 0 0 0 1.5 9v.339h.001v.004A2.747 2.747 0 0 0 4.25 12h.251a2.75 2.75 0 0 0 2.75-2.75V9c0-1.29-.89-2.374-2.089-2.67Z" clip-rule="evenodd"/></g><defs><clipPath id="a"><path fill="currentColor" d="M0 0h16v16H0z"/></clipPath></defs></svg>