<svg xmlns="http://www.w3.org/2000/svg" width="16" height="16" fill="none" viewBox="0 0 16 16"><g clip-path="url(#a)"><path fill="currentColor" fill-rule="evenodd" d="M12.411 6.33A2.75 2.75 0 0 1 14.5 9v.25A2.75 2.75 0 0 1 11.75 12h-.25a2.747 2.747 0 0 1-2.748-2.657V9.34H8.75V9q0-.197.027-.386.03-.392.09-.77a8 8 0 0 1 .559-1.918 7.2 7.2 0 0 1 2.162-2.801l.098-.076A.24.24 0 0 1 11.83 3c.186 0 .306.202.22.367a19 19 0 0 0-.22.433 18 18 0 0 0-.43.951 14 14 0 0 0-.557 1.578l.054-.013a2.8 2.8 0 0 1 .603-.066h.25q.343.001.661.08m.549-1.405A4.25 4.25 0 0 1 16 9v.25a4.25 4.25 0 0 1-4.25 4.25h-.25A4.25 4.25 0 0 1 8 11.662 4.25 4.25 0 0 1 4.5 13.5h-.25A4.25 4.25 0 0 1 0 9.336V9q0-.275.035-.543c.207-2.62 1.358-4.966 3.488-6.599A1.74 1.74 0 0 1 4.58 1.5c1.341 0 2.146 1.425 1.548 2.564-.111.211-.26.508-.418.86.788.234 1.481.69 2.005 1.297a8.76 8.76 0 0 1 3.058-4.363A1.74 1.74 0 0 1 11.83 1.5c1.341 0 2.146 1.425 1.548 2.564-.111.211-.26.508-.418.86M5.16 6.33a2.8 2.8 0 0 0-.661-.08h-.25a2.8 2.8 0 0 0-.657.079 14 14 0 0 1 .68-1.865A18 18 0 0 1 4.8 3.367.25.25 0 0 0 4.58 3a.24.24 0 0 0-.144.049 8 8 0 0 0-.93.844 7.2 7.2 0 0 0-1.39 2.172 8 8 0 0 0-.498 1.779q-.062.378-.091.77A3 3 0 0 0 1.5 9v.339h.001v.004A2.747 2.747 0 0 0 4.25 12h.251a2.75 2.75 0 0 0 2.75-2.75V9c0-1.29-.89-2.374-2.089-2.67" clip-rule="evenodd"/></g><defs><clipPath id="a"><path fill="currentColor" d="M0 0h16v16H0z"/></clipPath></defs></svg>