<svg xmlns="http://www.w3.org/2000/svg" width="16" height="16" fill="none" viewBox="0 0 16 16"><g fill="currentColor" clip-path="url(#a)"><path d="M13.001 8a.75.75 0 0 1 .75.75v1.501h1.502a.75.75 0 0 1 0 1.5H13.75v1.502a.75.75 0 0 1-1.5 0V11.75h-1.5a.75.75 0 0 1 0-1.5h1.501v-1.5a.75.75 0 0 1 .75-.75m-2.253-6a3 3 0 0 1 3 3v1a.75.75 0 0 1-1.5 0V5a1.5 1.5 0 0 0-1.5-1.5H3A1.5 1.5 0 0 0 1.5 5v2.25h7.25a.75.75 0 0 1 0 1.5H1.5V11A1.5 1.5 0 0 0 3 12.5h5.5a.75.75 0 0 1 0 1.5H3a3 3 0 0 1-3-3V5a3 3 0 0 1 3-3zM6 9.75a.75.75 0 0 1 0 1.5H3.5a.75.75 0 0 1 0-1.5zm0-5a.75.75 0 0 1 0 1.5H3.5a.75.75 0 0 1 0-1.5z"/><path d="M13.001 8a.75.75 0 0 1 .75.75v1.501h1.502a.75.75 0 0 1 0 1.5H13.75v1.502a.75.75 0 0 1-1.5 0V11.75h-1.5a.75.75 0 0 1 0-1.5h1.501v-1.5a.75.75 0 0 1 .75-.75"/><path d="M10.747 2a3 3 0 0 1 3.001 3v1a.75.75 0 0 1-1.5 0V5a1.5 1.5 0 0 0-1.5-1.5H3A1.5 1.5 0 0 0 1.5 5v2.25h7.25a.75.75 0 0 1 0 1.5H1.5V11A1.5 1.5 0 0 0 3 12.5h5.5a.75.75 0 0 1 0 1.5H3a3 3 0 0 1-3-3V5a3 3 0 0 1 3-3z"/><path d="M6 9.75a.75.75 0 0 1 0 1.5H3.5a.75.75 0 0 1 0-1.5zm0-5a.75.75 0 0 1 0 1.5H3.5a.75.75 0 0 1 0-1.5z"/></g><defs><clipPath id="a"><path fill="currentColor" d="M0 0h16v16H0z"/></clipPath></defs></svg>