<svg xmlns="http://www.w3.org/2000/svg" width="16" height="16" fill="none" viewBox="0 0 16 16"><path fill="currentColor" d="M13 10a.75.75 0 0 1 .725.556 2.37 2.37 0 0 0 1.72 1.72.75.75 0 0 1 0 1.449 2.37 2.37 0 0 0-1.72 1.72.75.75 0 0 1-1.45 0 2.37 2.37 0 0 0-1.72-1.72.75.75 0 0 1 0-1.45 2.37 2.37 0 0 0 1.72-1.72l.043-.117A.75.75 0 0 1 13 10M7 0a1.5 1.5 0 0 1 1.48 1.253c.242 1.455.696 2.364 1.3 2.968.603.603 1.512 1.057 2.967 1.3a1.5 1.5 0 0 1 0 2.958c-1.455.243-2.364.697-2.968 1.3-.603.604-1.057 1.513-1.3 2.968a1.5 1.5 0 0 1-2.958 0c-.243-1.455-.697-2.364-1.3-2.968-.604-.603-1.513-1.057-2.968-1.3a1.5 1.5 0 0 1 0-2.958c1.455-.243 2.364-.697 2.968-1.3.603-.604 1.057-1.513 1.3-2.968l.028-.133A1.5 1.5 0 0 1 7 0m0 1.5C6.45 4.8 4.8 6.45 1.5 7c3.3.55 4.95 2.2 5.5 5.5.55-3.3 2.2-4.95 5.5-5.5C9.2 6.45 7.55 4.8 7 1.5"/></svg>