<svg xmlns="http://www.w3.org/2000/svg" width="16" height="16" fill="none" viewBox="0 0 16 16"><g fill="currentColor"><path d="M8 1.383a7.75 7.75 0 0 1 5.773 12.92.95.95 0 0 1-.907.293l-2.457-.537a.75.75 0 0 1 .32-1.466l2.132.466a6.2 6.2 0 0 0 1.177-2.307l-1.865-.363a.75.75 0 1 1 .286-1.472l1.788.347.003-.131a6.2 6.2 0 0 0-1.051-3.469l-1.115.937a.75.75 0 0 1-.964-1.15l1.102-.926A6.23 6.23 0 0 0 8.75 2.93v1.376a.75.75 0 0 1-1.5 0V2.929a6.23 6.23 0 0 0-3.473 1.595l1.103.927a.75.75 0 0 1-.964 1.15L2.8 5.664a6.2 6.2 0 0 0-1.05 3.469q0 .066.002.13l1.789-.346a.75.75 0 0 1 .287 1.472l-1.866.363a6.2 6.2 0 0 0 1.175 2.307l2.133-.466a.751.751 0 0 1 .32 1.466l-2.456.537a.95.95 0 0 1-.908-.293A7.75 7.75 0 0 1 8 1.383M6.326 6.978a.519.519 0 0 1 .821-.393q.142.103.242.246l1.517 2.165a1 1 0 0 1-1.805.863l-.736-2.537a1 1 0 0 1-.04-.344"/><path d="M8 1.383a7.75 7.75 0 0 1 5.773 12.92.95.95 0 0 1-.907.293l-2.457-.537a.75.75 0 0 1 .32-1.466l2.132.466a6.2 6.2 0 0 0 1.177-2.307l-1.865-.363a.75.75 0 1 1 .286-1.472l1.788.347.003-.131a6.2 6.2 0 0 0-1.051-3.469l-1.115.937a.75.75 0 0 1-.964-1.15l1.102-.926A6.23 6.23 0 0 0 8.75 2.93v1.376a.75.75 0 0 1-1.5 0V2.929a6.23 6.23 0 0 0-3.473 1.595l1.103.927a.75.75 0 0 1-.964 1.15L2.8 5.664a6.2 6.2 0 0 0-1.05 3.469q0 .066.002.13l1.789-.346a.75.75 0 0 1 .287 1.472l-1.866.363a6.2 6.2 0 0 0 1.175 2.307l2.133-.466a.751.751 0 0 1 .32 1.466l-2.456.537a.95.95 0 0 1-.908-.293A7.75 7.75 0 0 1 8 1.383"/><path d="M6.326 6.978a.519.519 0 0 1 .821-.393q.142.103.242.246l1.517 2.165a1 1 0 0 1-1.805.863l-.736-2.537a1 1 0 0 1-.04-.344"/></g></svg>