<svg xmlns="http://www.w3.org/2000/svg" width="16" height="16" fill="none" viewBox="0 0 16 16"><path fill="currentColor" fill-rule="evenodd" d="M4.5 3A1.5 1.5 0 0 0 3 4.5v1.75a.75.75 0 0 1-1.5 0V4.5a3 3 0 0 1 3-3h1.75a.75.75 0 0 1 0 1.5zM9 2.25a.75.75 0 0 1 .75-.75h1.75a3 3 0 0 1 3 3v1.75a.75.75 0 0 1-1.5 0V4.5A1.5 1.5 0 0 0 11.5 3H9.75A.75.75 0 0 1 9 2.25M2.25 9a.75.75 0 0 1 .75.75v1.75A1.5 1.5 0 0 0 4.5 13h1.75a.75.75 0 0 1 0 1.5H4.5a3 3 0 0 1-3-3V9.75A.75.75 0 0 1 2.25 9m11.5 0a.75.75 0 0 1 .75.75v1.75a3 3 0 0 1-3 3H9.75a.75.75 0 0 1 0-1.5h1.75a1.5 1.5 0 0 0 1.5-1.5V9.75a.75.75 0 0 1 .75-.75M6.791 5.338a1.291 1.291 0 0 1 2.418 0l1.743 4.649a.75.75 0 1 1-1.404.526L9.168 9.5H6.832l-.38 1.013a.75.75 0 1 1-1.404-.526zM7.395 8h1.21L8 6.386z" clip-rule="evenodd"/></svg>