<svg xmlns="http://www.w3.org/2000/svg" width="16" height="16" fill="none" viewBox="0 0 16 16"><g fill="currentColor" fill-rule="evenodd" clip-rule="evenodd"><path d="M5.502 2.757C6.214 2.236 7.122 2 7.984 2c1.685 0 3.015.572 3.687 1.915a.75.75 0 1 1-1.342.67C10.001 3.928 9.331 3.5 7.984 3.5c-.611 0-1.19.17-1.597.467a1.46 1.46 0 0 0-.627 1.242c0 .404.165.76.463 1.041H4.447a2.9 2.9 0 0 1-.187-1.04c0-1.084.507-1.916 1.242-2.453m6.047 5.993h1.201a.75.75 0 0 0 0-1.5h-9.5a.75.75 0 0 0 0 1.5h5.475l.043.012h.002c1.196.323 1.98 1.005 1.98 1.988 0 .669-.289 1.063-.742 1.33-.5.296-1.222.437-2 .437-1.398 0-2.453-.473-2.796-1.504a.75.75 0 0 0-1.424.474c.657 1.969 2.602 2.53 4.22 2.53.915 0 1.94-.16 2.762-.644.869-.513 1.48-1.377 1.48-2.623 0-.822-.276-1.482-.7-2"/><path d="M5.502 2.757C6.214 2.236 7.122 2 7.984 2c1.685 0 3.015.572 3.687 1.915a.75.75 0 1 1-1.342.67C10.001 3.93 9.331 3.5 7.984 3.5c-.611 0-1.19.17-1.597.468-.384.28-.627.678-.627 1.242 0 .403.165.758.463 1.04H4.447a2.9 2.9 0 0 1-.187-1.04c0-1.084.507-1.916 1.242-2.453m6.047 5.993h1.201a.75.75 0 0 0 0-1.5h-9.5a.75.75 0 0 0 0 1.5h5.475l.043.012h.002c1.196.323 1.98 1.005 1.98 1.988 0 .669-.289 1.063-.742 1.33-.5.296-1.222.437-2 .437-1.398 0-2.453-.472-2.796-1.504a.75.75 0 1 0-1.424.474c.657 1.969 2.602 2.53 4.22 2.53.915 0 1.94-.16 2.762-.644.869-.512 1.48-1.376 1.48-2.623 0-.822-.276-1.481-.7-2"/></g></svg>