<?xml version="1.0" encoding="UTF-8" standalone="no"?>
<svg
   width="16"
   height="16"
   fill="none"
   viewBox="0 0 16 16"
   version="1.1"
   id="svg1"
   xmlns="http://www.w3.org/2000/svg"
   xmlns:svg="http://www.w3.org/2000/svg">
  <defs
     id="defs1" />
  <path
     id="rect32"
     style="color:#000000;display:inline;overflow:visible;fill:#000000;fill-opacity:1;stroke:none;stroke-width:0.05;stroke-dasharray:none;stroke-opacity:1"
     d="M 3 1 A 2 2 0 0 0 1 3 L 1 13 A 2 2 0 0 0 3 15 L 4.3398438 15 L 5.1679688 15 L 5.1679688 10.832031 L 5.1679688 9.3320312 L 5.1679688 6.6679688 L 5.1679688 5.1679688 L 5.1679688 1 L 3.6679688 1 L 3 1 z M 10.832031 1 L 10.832031 5.1679688 L 10.832031 6.6679688 L 10.832031 9.3320312 L 10.832031 10.832031 L 10.832031 15 L 12.332031 15 L 13 15 A 2 2 0 0 0 15 13 L 15 3 A 2 2 0 0 0 13 1 L 11.660156 1 L 10.832031 1 z M 5.9160156 1.3339844 L 5.9160156 2.8339844 L 10.083984 2.8339844 L 10.083984 1.3339844 L 5.9160156 1.3339844 z M 3 2.5 L 3.6679688 2.5 L 3.6679688 5.1679688 L 2.5 5.1679688 L 2.5 3 A 0.5 0.5 0 0 1 3 2.5 z M 12.332031 2.5 L 13 2.5 A 0.5 0.5 0 0 1 13.5 3 L 13.5 5.1679688 L 12.332031 5.1679688 L 12.332031 2.5 z M 5.9160156 5.1679688 L 5.9160156 15 L 10.083984 15 L 10.083984 5.1679688 L 5.9160156 5.1679688 z M 2.5 6.6679688 L 3.6679688 6.6679688 L 3.6679688 9.3320312 L 2.5 9.3320312 L 2.5 6.6679688 z M 7.4160156 6.6679688 L 8.5839844 6.6679688 L 8.5839844 9.3320312 L 7.4160156 9.3320312 L 7.4160156 6.6679688 z M 12.332031 6.6679688 L 13.5 6.6679688 L 13.5 9.3320312 L 12.332031 9.3320312 L 12.332031 6.6679688 z M 2.5 10.832031 L 3.6679688 10.832031 L 3.6679688 13.5 L 3 13.5 A 0.5 0.5 0 0 1 2.5 13 L 2.5 10.832031 z M 7.4160156 10.832031 L 8.5839844 10.832031 L 8.5839844 13.5 L 7.4160156 13.5 L 7.4160156 10.832031 z M 12.332031 10.832031 L 13.5 10.832031 L 13.5 13 A 0.5 0.5 0 0 1 13 13.5 L 12.332031 13.5 L 12.332031 10.832031 z " />
</svg>
