<?xml version="1.0" encoding="UTF-8" standalone="no"?>
<svg
   width="16"
   height="16"
   fill="none"
   viewBox="0 0 16 16"
   version="1.1"
   id="svg1"
   xmlns="http://www.w3.org/2000/svg"
   xmlns:svg="http://www.w3.org/2000/svg">
  <defs
     id="defs1" />
  <path
     id="rect32"
     style="color:#000000;overflow:visible;fill:#000000;fill-opacity:1;stroke:none;stroke-width:0.05;stroke-dasharray:none;stroke-opacity:1"
     d="M 3 1 A 2 2 0 0 0 1 3 L 1 4.3398438 L 1 5.1679688 L 5.1679688 5.1679688 L 6.6679688 5.1679688 L 9.3320312 5.1679688 L 10.832031 5.1679688 L 15 5.1679688 L 15 3.6679688 L 15 3 A 2 2 0 0 0 13 1 L 3 1 z M 3 2.5 L 5.1679688 2.5 L 5.1679688 3.6679688 L 2.5 3.6679688 L 2.5 3 A 0.5 0.5 0 0 1 3 2.5 z M 6.6679688 2.5 L 9.3320312 2.5 L 9.3320312 3.6679688 L 6.6679688 3.6679688 L 6.6679688 2.5 z M 10.832031 2.5 L 13 2.5 A 0.5 0.5 0 0 1 13.5 3 L 13.5 3.6679688 L 10.832031 3.6679688 L 10.832031 2.5 z M 1.3339844 5.9160156 L 1.3339844 7.25 L 0 7.25 L 0 8.75 L 1.3339844 8.75 L 1.3339844 10.083984 L 2.8339844 10.083984 L 2.8339844 8.75 L 4.1679688 8.75 L 4.1679688 7.25 L 2.8339844 7.25 L 2.8339844 5.9160156 L 1.3339844 5.9160156 z M 5.1679688 5.9160156 L 5.1679688 10.083984 L 15 10.083984 L 15 5.9160156 L 5.1679688 5.9160156 z M 6.6679688 7.4160156 L 9.3320312 7.4160156 L 9.3320312 8.5839844 L 6.6679688 8.5839844 L 6.6679688 7.4160156 z M 10.832031 7.4160156 L 13.5 7.4160156 L 13.5 8.5839844 L 10.832031 8.5839844 L 10.832031 7.4160156 z M 1 10.832031 L 1 12.332031 L 1 13 A 2 2 0 0 0 3 15 L 13 15 A 2 2 0 0 0 15 13 L 15 11.660156 L 15 10.832031 L 10.832031 10.832031 L 9.3320312 10.832031 L 6.6679688 10.832031 L 5.1679688 10.832031 L 1 10.832031 z M 2.5 12.332031 L 5.1679688 12.332031 L 5.1679688 13.5 L 3 13.5 A 0.5 0.5 0 0 1 2.5 13 L 2.5 12.332031 z M 6.6679688 12.332031 L 9.3320312 12.332031 L 9.3320312 13.5 L 6.6679688 13.5 L 6.6679688 12.332031 z M 10.832031 12.332031 L 13.5 12.332031 L 13.5 13 A 0.5 0.5 0 0 1 13 13.5 L 10.832031 13.5 L 10.832031 12.332031 z " />
</svg>
