<?xml version="1.0" encoding="UTF-8" standalone="no"?>
<svg
   width="16"
   height="16"
   fill="none"
   viewBox="0 0 16 16"
   version="1.1"
   id="svg1"
   xmlns="http://www.w3.org/2000/svg"
   xmlns:svg="http://www.w3.org/2000/svg">
  <defs
     id="defs1" />
  <path
     id="rect32"
     style="color:#000000;overflow:visible;fill:#000000;fill-opacity:1;stroke:none;stroke-width:0.05;stroke-dasharray:none;stroke-opacity:1"
     d="M 15,3 A 2,2 0 0 0 13,1 h -1.339844 -0.828125 v 4.1679688 1.5 V 9.3320312 10.832031 15 h 1.5 H 13 a 2,2 0 0 0 2,-2 z M 13.5,3 V 5.1679688 H 12.332031 V 2.5 H 13 A 0.5,0.5 0 0 1 13.5,3 Z m 0,3.6679688 V 9.3320312 H 12.332031 V 6.6679688 Z m 0,4.1640622 V 13 A 0.5,0.5 0 0 1 13,13.5 H 12.332031 V 10.832031 Z M 10.083985,1.3339844 H 8.7500002 V 0 h -1.5 v 1.3339844 h -1.333984 v 1.5 h 1.333984 v 1.3339844 h 1.5 V 2.8339844 h 1.3339848 z m 0,3.8339844 H 5.9160162 V 15 h 4.1679688 z m -1.5000004,1.5 V 9.3320312 H 7.4160158 V 6.6679688 Z m 0,4.1640622 V 13.5 H 7.4160158 V 10.832031 Z M 5.1679692,1 h -1.5 -0.667969 a 2,2 0 0 0 -2,2 v 10 a 2,2 0 0 0 2,2 h 1.339844 0.828125 v -4.167969 -1.4999998 -2.6640624 -1.5 z m -1.5,1.5 V 5.1679688 H 2.5000002 V 3 a 0.5,0.5 0 0 1 0.5,-0.5 z m 0,4.1679688 V 9.3320312 H 2.5000002 V 6.6679688 Z m 0,4.1640622 V 13.5 h -0.667969 a 0.5,0.5 0 0 1 -0.5,-0.5 v -2.167969 z" />
</svg>
