<svg xmlns="http://www.w3.org/2000/svg" width="16" height="16" fill="none" viewBox="0 0 16 16"><g fill="currentColor"><path d="M6.72 1.49c.453-.076.84.293.84.752v.706c0 .486-.431.856-.917.863-1.712.023-3.243.81-4.095 2.264l-.18.345a6.2 6.2 0 0 0-.618 2.713 6.22 6.22 0 0 0 1.388 3.926l2.133-.466a.751.751 0 0 1 .32 1.466l-2.457.537a.95.95 0 0 1-.907-.293A7.72 7.72 0 0 1 .25 9.133c0-1.376.36-2.671.99-3.793l.183-.308a7.8 7.8 0 0 1 1.929-2.101A7.7 7.7 0 0 1 6.72 1.489m5.511 9.054.252.048 2.077.403.079.017c.451.094.734.551.564.98a7.7 7.7 0 0 1-1.43 2.31.95.95 0 0 1-.907.294l-2.458-.538a.75.75 0 0 1-.4-1.23c.518-.581.963-1.17 1.29-1.799.18-.343.553-.556.933-.485M6.326 6.978a.518.518 0 0 1 .82-.393q.142.103.244.246l1.515 2.165a1 1 0 1 1-1.803.863l-.737-2.537a1 1 0 0 1-.039-.344m7.506-1.583c.371-.255.884-.155 1.087.247a7.7 7.7 0 0 1 .831 3.49.477.477 0 0 1-.584.457l-.3-.063-2.101-.408-.181-.034c-.395-.074-.667-.432-.698-.833a6 6 0 0 0-.035-.323 4 4 0 0 0-.061-.327c-.081-.351.02-.732.309-.947l.172-.128 1.49-1.084zM9.061 2.373c0-.485.43-.862.899-.74a7.7 7.7 0 0 1 3.03 1.572c.32.27.27.763-.076 1.001l-.01.006-1.522 1.105c-.299.222-.716.164-.984-.094a5 5 0 0 0-.888-.692c-.266-.162-.45-.44-.45-.75z"/><path d="M6.72 1.49c.453-.076.84.293.84.752v.706c0 .486-.431.856-.917.863-1.712.023-3.243.81-4.095 2.264l-.18.345a6.2 6.2 0 0 0-.618 2.713 6.22 6.22 0 0 0 1.388 3.926l2.133-.466a.751.751 0 0 1 .32 1.466l-2.457.537a.95.95 0 0 1-.907-.293A7.72 7.72 0 0 1 .25 9.133c0-1.376.36-2.671.99-3.793l.183-.308a7.8 7.8 0 0 1 1.929-2.101A7.7 7.7 0 0 1 6.72 1.489m5.511 9.055.252.048 2.077.403.079.017c.451.094.734.551.564.98a7.7 7.7 0 0 1-1.43 2.31.95.95 0 0 1-.907.294l-2.458-.538a.75.75 0 0 1-.4-1.23c.518-.581.963-1.17 1.29-1.799.18-.343.553-.556.933-.485"/><path d="M6.326 6.978a.518.518 0 0 1 .82-.393q.142.103.244.246l1.515 2.165a1 1 0 1 1-1.803.863l-.737-2.537a1 1 0 0 1-.039-.344m7.506-1.583c.371-.255.884-.155 1.087.247a7.7 7.7 0 0 1 .831 3.49.477.477 0 0 1-.584.457l-.3-.063-2.101-.408-.181-.034c-.395-.074-.667-.432-.698-.833a6 6 0 0 0-.035-.323 4 4 0 0 0-.061-.327c-.081-.351.02-.732.309-.947l.172-.128 1.49-1.084zM9.06 2.373c0-.485.43-.862.9-.74a7.7 7.7 0 0 1 3.03 1.572c.32.27.27.763-.076 1.001l-.01.006-1.522 1.105c-.299.222-.716.164-.984-.094a5 5 0 0 0-.888-.692c-.266-.162-.45-.44-.45-.75z"/></g></svg>