<svg xmlns="http://www.w3.org/2000/svg" width="16" height="16" fill="none" viewBox="0 0 16 16"><g fill="currentColor"><path d="M9.263.498a.75.75 0 0 1 1.274.717L9.23 5.622h3.27c1.104 0 1.666 1.328.898 2.12l-7.542 7.779a.75.75 0 0 1-1.248-.764l1.601-4.724H3.446c-1.084 0-1.654-1.285-.926-2.089zM4.01 8.533h3.246a.75.75 0 0 1 .711.992l-.869 2.56 4.813-4.963H8.225a.75.75 0 0 1-.719-.964l.655-2.21z"/><path fill-rule="evenodd" d="M9.262.498a.75.75 0 0 1 1.275.717L9.229 5.622h3.272c1.104 0 1.665 1.328.897 2.12l-7.542 7.779a.75.75 0 0 1-1.248-.764l1.602-4.723H3.445c-1.083-.001-1.653-1.286-.926-2.09zM4.01 8.534h3.246a.75.75 0 0 1 .711.99l-.869 2.56 4.813-4.962H8.224a.75.75 0 0 1-.719-.963l.656-2.21z" clip-rule="evenodd"/></g></svg>