<svg xmlns="http://www.w3.org/2000/svg" width="16" height="16" fill="none" viewBox="0 0 16 16"><path fill="currentColor" fill-rule="evenodd" d="M3 4.5h5.5A1.5 1.5 0 0 1 10 6v4a1.5 1.5 0 0 1-1.5 1.5H3A1.5 1.5 0 0 1 1.5 10V6A1.5 1.5 0 0 1 3 4.5m8.452 6.037A3 3 0 0 1 8.5 13H3a3 3 0 0 1-3-3V6a3 3 0 0 1 3-3h5.5a3 3 0 0 1 2.952 2.463l1.554-1.11A1.893 1.893 0 0 1 16 5.893v4.214a1.893 1.893 0 0 1-2.994 1.54zm.048-1.809 2.378 1.699a.393.393 0 0 0 .622-.32V5.893a.393.393 0 0 0-.622-.32L11.5 7.272z" clip-rule="evenodd"/></svg>