<svg xmlns="http://www.w3.org/2000/svg" width="16" height="16" fill="none" viewBox="0 0 16 16"><g fill="currentColor"><path d="M10.753 8.005a.75.75 0 0 1 0 1.5h-1a.75.75 0 0 1 0-1.5z"/><path fill-rule="evenodd" d="M12.75 1.5a.75.75 0 0 1 0 1.5H3.195a.7.7 0 0 0-.698.7l.004.081a.8.8 0 0 0 .796.718h8.96a2.75 2.75 0 0 1 2.75 2.75v4.5a2.75 2.75 0 0 1-2.75 2.75h-8.51a2.75 2.75 0 0 1-2.75-2.75V3.7c0-1.215.984-2.2 2.198-2.2zM2.497 11.75c0 .69.56 1.25 1.25 1.25h8.51c.691 0 1.25-.56 1.25-1.25v-4.5c0-.69-.56-1.25-1.25-1.25h-8.96c-.281 0-.55-.054-.8-.146z" clip-rule="evenodd"/></g></svg>